%TF.GenerationSoftware,KiCad,Pcbnew,10.0.0-77-g195be9ed85*%
%TF.CreationDate,2026-05-07T20:48:50+02:00*%
%TF.ProjectId,diff-line-demo,64696666-2d6c-4696-9e65-2d64656d6f2e,rev?*%
%TF.SameCoordinates,Original*%
%TF.FileFunction,Copper,L1,Top*%
%TF.FilePolarity,Positive*%
%FSLAX46Y46*%
G04 Gerber Fmt 4.6, Leading zero omitted, Abs format (unit mm)*
G04 Created by KiCad (PCBNEW 10.0.0-77-g195be9ed85) date 2026-05-07 20:48:50*
%MOMM*%
%LPD*%
G01*
G04 APERTURE LIST*
%TA.AperFunction,SMDPad,CuDef*%
%ADD10R,1.900000X0.300000*%
%TD*%
%TA.AperFunction,ComponentPad*%
%ADD11C,1.800000*%
%TD*%
%TA.AperFunction,ViaPad*%
%ADD12C,0.600000*%
%TD*%
%TA.AperFunction,Conductor*%
%ADD13C,0.360000*%
%TD*%
%TA.AperFunction,Conductor*%
%ADD14C,0.200000*%
%TD*%
G04 APERTURE END LIST*
D10*
%TO.P,J1,1,D2+_1*%
%TO.N,Net-(J1-D2+)*%
X218647000Y-94945000D03*
%TO.P,J1,2,D2S_2*%
%TO.N,GND*%
X218647000Y-95445000D03*
%TO.P,J1,3,D2-_3*%
%TO.N,Net-(J1-D2-)*%
X218647000Y-95945000D03*
%TO.P,J1,4,D1+_4*%
%TO.N,/D1+*%
X218647000Y-96445000D03*
%TO.P,J1,5,D1S_5*%
%TO.N,GND*%
X218647000Y-96945000D03*
%TO.P,J1,6,D1-_6*%
%TO.N,/D1-*%
X218647000Y-97445000D03*
%TO.P,J1,7,D0+_7*%
%TO.N,/D0+*%
X218647000Y-97945000D03*
%TO.P,J1,8,D0S_8*%
%TO.N,GND*%
X218647000Y-98445000D03*
%TO.P,J1,9,D0-_9*%
%TO.N,/D0-*%
X218647000Y-98945000D03*
%TO.P,J1,10,CK+_10*%
%TO.N,/CK+*%
X218647000Y-99445000D03*
%TO.P,J1,11,CKS_11*%
%TO.N,GND*%
X218647000Y-99945000D03*
%TO.P,J1,12,CK-_12*%
%TO.N,/CK-*%
X218647000Y-100445000D03*
%TO.P,J1,13,CEC_13*%
%TO.N,Net-(J1-CEC)*%
X218647000Y-100945000D03*
%TO.P,J1,14,UTILITY_14*%
%TO.N,Net-(J1-UTILITY)*%
X218647000Y-101445000D03*
%TO.P,J1,15,SCL_15*%
%TO.N,Net-(J1-SCL)*%
X218647000Y-101945000D03*
%TO.P,J1,16,SDA_16*%
%TO.N,Net-(J1-SDA)*%
X218647000Y-102445000D03*
%TO.P,J1,17,GND_17*%
%TO.N,GND*%
X218647000Y-102945000D03*
%TO.P,J1,18,+5V_18*%
%TO.N,Net-(J1-+5V)*%
X218647000Y-103445000D03*
%TO.P,J1,19,HPD_19*%
%TO.N,Net-(J1-HPD)*%
X218647000Y-103945000D03*
D11*
%TO.P,J1,SH,SH_SH*%
%TO.N,GND*%
X224547000Y-107545000D03*
X219647000Y-106945000D03*
X219647000Y-92445000D03*
X224547000Y-91845000D03*
%TD*%
D10*
%TO.P,J2,1,D2+_1*%
%TO.N,Net-(J1-D2+)*%
X60854600Y-104750000D03*
%TO.P,J2,2,D2S_2*%
%TO.N,GND*%
X60854600Y-104250000D03*
%TO.P,J2,3,D2-_3*%
%TO.N,Net-(J1-D2-)*%
X60854600Y-103750000D03*
%TO.P,J2,4,D1+_4*%
%TO.N,/D1+*%
X60854600Y-103250000D03*
%TO.P,J2,5,D1S_5*%
%TO.N,GND*%
X60854600Y-102750000D03*
%TO.P,J2,6,D1-_6*%
%TO.N,/D1-*%
X60854600Y-102250000D03*
%TO.P,J2,7,D0+_7*%
%TO.N,/D0+*%
X60854600Y-101750000D03*
%TO.P,J2,8,D0S_8*%
%TO.N,GND*%
X60854600Y-101250000D03*
%TO.P,J2,9,D0-_9*%
%TO.N,/D0-*%
X60854600Y-100750000D03*
%TO.P,J2,10,CK+_10*%
%TO.N,/CK+*%
X60854600Y-100250000D03*
%TO.P,J2,11,CKS_11*%
%TO.N,GND*%
X60854600Y-99750000D03*
%TO.P,J2,12,CK-_12*%
%TO.N,/CK-*%
X60854600Y-99250000D03*
%TO.P,J2,13,CEC_13*%
%TO.N,Net-(J1-CEC)*%
X60854600Y-98750000D03*
%TO.P,J2,14,UTILITY_14*%
%TO.N,Net-(J1-UTILITY)*%
X60854600Y-98250000D03*
%TO.P,J2,15,SCL_15*%
%TO.N,Net-(J1-SCL)*%
X60854600Y-97750000D03*
%TO.P,J2,16,SDA_16*%
%TO.N,Net-(J1-SDA)*%
X60854600Y-97250000D03*
%TO.P,J2,17,GND_17*%
%TO.N,GND*%
X60854600Y-96750000D03*
%TO.P,J2,18,+5V_18*%
%TO.N,Net-(J1-+5V)*%
X60854600Y-96250000D03*
%TO.P,J2,19,HPD_19*%
%TO.N,Net-(J1-HPD)*%
X60854600Y-95750000D03*
D11*
%TO.P,J2,SH,SH_SH*%
%TO.N,GND*%
X54954600Y-92150000D03*
X59854600Y-92750000D03*
X59854600Y-107250000D03*
X54954600Y-107850000D03*
%TD*%
D12*
%TO.N,Net-(J1-D2-)*%
X90093800Y-104749600D03*
X89103200Y-103759000D03*
%TO.N,/D1+*%
X85360600Y-106451400D03*
X85360600Y-99695000D03*
%TO.N,/D1-*%
X84260600Y-99695000D03*
X84260600Y-106451400D03*
%TO.N,/D0+*%
X80661600Y-106172000D03*
X80661600Y-99491800D03*
%TO.N,/D0-*%
X79561600Y-99491800D03*
X79561600Y-106172000D03*
%TO.N,/CK-*%
X75827800Y-97256600D03*
X75827800Y-106095800D03*
%TO.N,/CK+*%
X76927800Y-106095800D03*
X76927800Y-97256600D03*
%TO.N,Net-(J1-UTILITY)*%
X70612000Y-97663000D03*
X220548200Y-101445000D03*
%TO.N,Net-(J1-HPD)*%
X62865000Y-94691200D03*
X224586800Y-103479600D03*
%TO.N,Net-(J1-SDA)*%
X221742000Y-101777800D03*
X68554600Y-97104200D03*
%TO.N,Net-(J1-SCL)*%
X72186800Y-96926400D03*
X215544400Y-103174800D03*
%TO.N,Net-(J1-+5V)*%
X66319400Y-96316800D03*
X221488000Y-104343200D03*
%TO.N,GND*%
X219811600Y-95453200D03*
X217500200Y-102946200D03*
X219811600Y-99949000D03*
X219811600Y-98450400D03*
X219811600Y-96951800D03*
%TO.N,Net-(J1-CEC)*%
X73990200Y-97917000D03*
X215925400Y-101879400D03*
%TD*%
%TO.N,Net-(J1-D2+)*%
D13*
X189484000Y-62865000D02*
X192786000Y-62865000D01*
X60854600Y-104750000D02*
X89052000Y-104750000D01*
X92811600Y-103708200D02*
X93599000Y-102920800D01*
X110617000Y-64008000D02*
X145542000Y-98933000D01*
X108585000Y-64008000D02*
X110617000Y-64008000D01*
X192786000Y-62865000D02*
X205613000Y-75692000D01*
X89052000Y-104750000D02*
X90093800Y-103708200D01*
X153416000Y-98933000D02*
X189484000Y-62865000D01*
X205613000Y-93980000D02*
X206578000Y-94945000D01*
X206578000Y-94945000D02*
X218647000Y-94945000D01*
X145542000Y-98933000D02*
X153416000Y-98933000D01*
X90093800Y-103708200D02*
X92811600Y-103708200D01*
X93599000Y-102920800D02*
X93599000Y-78994000D01*
X93599000Y-78994000D02*
X108585000Y-64008000D01*
X205613000Y-75692000D02*
X205613000Y-93980000D01*
%TO.N,Net-(J1-D2-)*%
X205867000Y-96520000D02*
X206442000Y-95945000D01*
X145846800Y-101041200D02*
X153517600Y-101041200D01*
D14*
X89103200Y-103759000D02*
X88883600Y-103750000D01*
D13*
X110744000Y-136144000D02*
X145846800Y-101041200D01*
X107696000Y-136144000D02*
X110744000Y-136144000D01*
X92811600Y-104749600D02*
X93726000Y-105664000D01*
X205867000Y-122555000D02*
X205867000Y-96520000D01*
X191935100Y-136486900D02*
X205867000Y-122555000D01*
X153517600Y-101041200D02*
X188963300Y-136486900D01*
X188963300Y-136486900D02*
X191935100Y-136486900D01*
X90093800Y-104749600D02*
X92811600Y-104749600D01*
X93726000Y-122174000D02*
X107696000Y-136144000D01*
D14*
X88883600Y-103750000D02*
X60854600Y-103750000D01*
D13*
X206442000Y-95945000D02*
X218647000Y-95945000D01*
X93726000Y-105664000D02*
X93726000Y-122174000D01*
%TO.N,/D1+*%
X85240600Y-119074888D02*
X85240600Y-106571400D01*
X62279601Y-103250000D02*
X62349601Y-103180000D01*
X207596000Y-130809688D02*
X181685888Y-156719800D01*
X181685888Y-156719800D02*
X122885512Y-156719800D01*
X83711712Y-103180000D02*
X85242400Y-101649312D01*
X209988288Y-96515000D02*
X207596000Y-98907288D01*
X122885512Y-156719800D02*
X85240600Y-119074888D01*
X85240600Y-106571400D02*
X85360600Y-106451400D01*
X207596000Y-98907288D02*
X207596000Y-130809688D01*
X85242400Y-101649312D02*
X85242400Y-99813200D01*
X218647000Y-96445000D02*
X217221999Y-96445000D01*
X62349601Y-103180000D02*
X83711712Y-103180000D01*
X60854600Y-103250000D02*
X62279601Y-103250000D01*
X217221999Y-96445000D02*
X217151999Y-96515000D01*
X217151999Y-96515000D02*
X209988288Y-96515000D01*
X85242400Y-99813200D02*
X85360600Y-99695000D01*
%TO.N,/D1-*%
X84378800Y-99813200D02*
X84260600Y-99695000D01*
X84380600Y-119431112D02*
X84380600Y-106571400D01*
X60854600Y-102250000D02*
X62279601Y-102250000D01*
X84378800Y-101296688D02*
X84378800Y-99813200D01*
X83355488Y-102320000D02*
X84378800Y-101296688D01*
X62349601Y-102320000D02*
X83355488Y-102320000D01*
X182042112Y-157579800D02*
X122529288Y-157579800D01*
X122529288Y-157579800D02*
X84380600Y-119431112D01*
X84380600Y-106571400D02*
X84260600Y-106451400D01*
X208456000Y-99263512D02*
X208456000Y-131165912D01*
X210344512Y-97375000D02*
X208456000Y-99263512D01*
X217151999Y-97375000D02*
X210344512Y-97375000D01*
X62279601Y-102250000D02*
X62349601Y-102320000D01*
X208456000Y-131165912D02*
X182042112Y-157579800D01*
X217221999Y-97445000D02*
X217151999Y-97375000D01*
X218647000Y-97445000D02*
X217221999Y-97445000D01*
%TO.N,/D0+*%
X187553288Y-159996400D02*
X113335112Y-159996400D01*
X80541600Y-99611800D02*
X80661600Y-99491800D01*
X80541600Y-127202888D02*
X80541600Y-106292000D01*
X210288400Y-137261288D02*
X187553288Y-159996400D01*
X80541600Y-100558912D02*
X80541600Y-99611800D01*
X62279601Y-101750000D02*
X62349601Y-101680000D01*
X217221999Y-97945000D02*
X217151999Y-98015000D01*
X113335112Y-159996400D02*
X80541600Y-127202888D01*
X62349601Y-101680000D02*
X79420512Y-101680000D01*
X80541600Y-106292000D02*
X80661600Y-106172000D01*
X79420512Y-101680000D02*
X80541600Y-100558912D01*
X60854600Y-101750000D02*
X62279601Y-101750000D01*
X217151999Y-98015000D02*
X212120488Y-98015000D01*
X218647000Y-97945000D02*
X217221999Y-97945000D01*
X210288400Y-99847088D02*
X210288400Y-137261288D01*
X212120488Y-98015000D02*
X210288400Y-99847088D01*
%TO.N,/D0-*%
X211148400Y-100203312D02*
X211148400Y-137617512D01*
X79681600Y-127559112D02*
X79681600Y-106292000D01*
X217221999Y-98945000D02*
X217151999Y-98875000D01*
X79681600Y-100202688D02*
X79681600Y-99611800D01*
X187909512Y-160856400D02*
X112978888Y-160856400D01*
X62349601Y-100820000D02*
X79064288Y-100820000D01*
X60854600Y-100750000D02*
X62279601Y-100750000D01*
X79064288Y-100820000D02*
X79681600Y-100202688D01*
X79681600Y-99611800D02*
X79561600Y-99491800D01*
X79681600Y-106292000D02*
X79561600Y-106172000D01*
X217151999Y-98875000D02*
X212476712Y-98875000D01*
X112978888Y-160856400D02*
X79681600Y-127559112D01*
X211148400Y-137617512D02*
X187909512Y-160856400D01*
X212476712Y-98875000D02*
X211148400Y-100203312D01*
X62279601Y-100750000D02*
X62349601Y-100820000D01*
X218647000Y-98945000D02*
X217221999Y-98945000D01*
%TO.N,/CK-*%
X217221999Y-100445000D02*
X217151999Y-100375000D01*
X75946000Y-97374800D02*
X75827800Y-97256600D01*
X191973512Y-166749200D02*
X105562088Y-166749200D01*
X62349601Y-99320000D02*
X75128688Y-99320000D01*
X214171000Y-144551712D02*
X191973512Y-166749200D01*
X217151999Y-100375000D02*
X215167712Y-100375000D01*
X215167712Y-100375000D02*
X214171000Y-101371712D01*
X75947800Y-137134912D02*
X75947800Y-106215800D01*
X218647000Y-100445000D02*
X217221999Y-100445000D01*
X75128688Y-99320000D02*
X75946000Y-98502688D01*
X214171000Y-101371712D02*
X214171000Y-144551712D01*
X75947800Y-106215800D02*
X75827800Y-106095800D01*
X60854600Y-99250000D02*
X62279601Y-99250000D01*
X105562088Y-166749200D02*
X75947800Y-137134912D01*
X75946000Y-98502688D02*
X75946000Y-97374800D01*
X62279601Y-99250000D02*
X62349601Y-99320000D01*
%TO.N,/CK+*%
X217151999Y-99515000D02*
X214811488Y-99515000D01*
X105918312Y-165889200D02*
X76807800Y-136778688D01*
X214811488Y-99515000D02*
X213311000Y-101015488D01*
X76807800Y-106215800D02*
X76927800Y-106095800D01*
X76809600Y-97374800D02*
X76927800Y-97256600D01*
X62349601Y-100180000D02*
X75484912Y-100180000D01*
X76807800Y-136778688D02*
X76807800Y-106215800D01*
X60854600Y-100250000D02*
X62279601Y-100250000D01*
X218647000Y-99445000D02*
X217221999Y-99445000D01*
X75484912Y-100180000D02*
X76809600Y-98855312D01*
X191617288Y-165889200D02*
X105918312Y-165889200D01*
X217221999Y-99445000D02*
X217151999Y-99515000D01*
X62279601Y-100250000D02*
X62349601Y-100180000D01*
X213311000Y-101015488D02*
X213311000Y-144195488D01*
X76809600Y-98855312D02*
X76809600Y-97374800D01*
X213311000Y-144195488D02*
X191617288Y-165889200D01*
%TO.N,Net-(J1-UTILITY)*%
D14*
X63627000Y-98145600D02*
X63522600Y-98250000D01*
X220548200Y-101445000D02*
X218647000Y-101445000D01*
X70129400Y-98145600D02*
X63627000Y-98145600D01*
X70612000Y-97663000D02*
X70129400Y-98145600D01*
X63522600Y-98250000D02*
X60854600Y-98250000D01*
%TO.N,Net-(J1-HPD)*%
X221005400Y-105029000D02*
X219921400Y-103945000D01*
X61806200Y-95750000D02*
X60854600Y-95750000D01*
X62865000Y-94691200D02*
X61806200Y-95750000D01*
X223037400Y-105029000D02*
X221005400Y-105029000D01*
X219921400Y-103945000D02*
X218647000Y-103945000D01*
X224586800Y-103479600D02*
X223037400Y-105029000D01*
%TO.N,Net-(J1-SDA)*%
X68554600Y-97104200D02*
X68408800Y-97250000D01*
X221074800Y-102445000D02*
X218647000Y-102445000D01*
X221742000Y-101777800D02*
X221074800Y-102445000D01*
X68408800Y-97250000D02*
X60854600Y-97250000D01*
%TO.N,Net-(J1-SCL)*%
X216154000Y-103174800D02*
X215544400Y-103174800D01*
X217383800Y-101945000D02*
X216154000Y-103174800D01*
X218647000Y-101945000D02*
X217383800Y-101945000D01*
X60854600Y-97750000D02*
X69356600Y-97750000D01*
X70180200Y-96926400D02*
X72186800Y-96926400D01*
X69356600Y-97750000D02*
X70180200Y-96926400D01*
%TO.N,Net-(J1-+5V)*%
X66319400Y-96316800D02*
X60921400Y-96316800D01*
X220589800Y-103445000D02*
X218647000Y-103445000D01*
X60921400Y-96316800D02*
X60854600Y-96250000D01*
X221488000Y-104343200D02*
X220589800Y-103445000D01*
%TO.N,GND*%
X218647000Y-95445000D02*
X219803400Y-95445000D01*
X219803400Y-95445000D02*
X219811600Y-95453200D01*
X218647000Y-96945000D02*
X219804800Y-96945000D01*
X219804800Y-96945000D02*
X219811600Y-96951800D01*
X219806200Y-98445000D02*
X219811600Y-98450400D01*
X218647000Y-98445000D02*
X219806200Y-98445000D01*
X218647000Y-99945000D02*
X219807600Y-99945000D01*
X217500200Y-102946200D02*
X218645800Y-102946200D01*
X219807600Y-99945000D02*
X219811600Y-99949000D01*
X218645800Y-102946200D02*
X218647000Y-102945000D01*
%TO.N,Net-(J1-CEC)*%
X216910600Y-100945000D02*
X218647000Y-100945000D01*
X73157200Y-98750000D02*
X73990200Y-97917000D01*
X215976200Y-101879400D02*
X216910600Y-100945000D01*
X215925400Y-101879400D02*
X215976200Y-101879400D01*
X60854600Y-98750000D02*
X73157200Y-98750000D01*
%TD*%
M02*
