%TF.GenerationSoftware,KiCad,Pcbnew,10.0.0-77-g195be9ed85*%
%TF.CreationDate,2026-05-08T16:48:46+02:00*%
%TF.ProjectId,diff-line-demo,64696666-2d6c-4696-9e65-2d64656d6f2e,rev?*%
%TF.SameCoordinates,Original*%
%TF.FileFunction,Copper,L3,Inr*%
%TF.FilePolarity,Positive*%
%FSLAX46Y46*%
G04 Gerber Fmt 4.6, Leading zero omitted, Abs format (unit mm)*
G04 Created by KiCad (PCBNEW 10.0.0-77-g195be9ed85) date 2026-05-08 16:48:46*
%MOMM*%
%LPD*%
G01*
G04 APERTURE LIST*
%TA.AperFunction,ComponentPad*%
%ADD10C,1.800000*%
%TD*%
%TA.AperFunction,ViaPad*%
%ADD11C,0.600000*%
%TD*%
G04 APERTURE END LIST*
D10*
%TO.N,GND*%
%TO.C,J1*%
X224547000Y-107545000D03*
X219647000Y-106945000D03*
X219647000Y-92445000D03*
X224547000Y-91845000D03*
%TD*%
%TO.N,GND*%
%TO.C,J2*%
X54954600Y-92150000D03*
X59854600Y-92750000D03*
X59854600Y-107250000D03*
X54954600Y-107850000D03*
%TD*%
D11*
%TO.N,GND*%
X219811600Y-95453200D03*
X217500200Y-102946200D03*
X219811600Y-99949000D03*
X219811600Y-98450400D03*
X219811600Y-96951800D03*
%TO.N,Net-(J1-D2-)*%
X90093800Y-104749600D03*
X89103200Y-103759000D03*
%TO.N,/D1+*%
X85360600Y-106451400D03*
X85360600Y-99695000D03*
%TO.N,/D1-*%
X84260600Y-99695000D03*
X84260600Y-106451400D03*
%TO.N,/D0+*%
X80661600Y-106172000D03*
X80661600Y-99491800D03*
%TO.N,/D0-*%
X79561600Y-99491800D03*
X79561600Y-106172000D03*
%TO.N,/CK+*%
X76927800Y-106095800D03*
X76927800Y-97256600D03*
%TO.N,/CK-*%
X75827800Y-97256600D03*
X75827800Y-106095800D03*
%TO.N,Net-(J1-CEC)*%
X73990200Y-97917000D03*
X215925400Y-101879400D03*
%TO.N,Net-(J1-UTILITY)*%
X70612000Y-97663000D03*
X220548200Y-101445000D03*
%TO.N,Net-(J1-SCL)*%
X72186800Y-96926400D03*
X215544400Y-103174800D03*
%TO.N,Net-(J1-SDA)*%
X221742000Y-101777800D03*
X68554600Y-97104200D03*
%TO.N,Net-(J1-+5V)*%
X66319400Y-96316800D03*
X221488000Y-104343200D03*
%TO.N,Net-(J1-HPD)*%
X62865000Y-94691200D03*
X224586800Y-103479600D03*
%TD*%
%TA.AperFunction,Conductor*%
%TO.N,GND*%
G36*
X227992606Y-40505523D02*
G01*
X228007604Y-40509927D01*
X228066355Y-40547672D01*
X228067542Y-40549041D01*
X228087407Y-40592504D01*
X228090863Y-40591408D01*
X228093695Y-40600335D01*
X228095082Y-40609294D01*
X228096587Y-40612587D01*
X228096108Y-40615923D01*
X228099500Y-40637831D01*
X228099500Y-382364270D01*
X228094475Y-382399214D01*
X228090070Y-382414212D01*
X228052327Y-382472955D01*
X228050958Y-382474142D01*
X227996097Y-382501618D01*
X227988539Y-382503263D01*
X227962168Y-382506100D01*
X51493130Y-382506100D01*
X51458189Y-382501075D01*
X51443190Y-382496670D01*
X51384444Y-382458927D01*
X51383257Y-382457558D01*
X51355777Y-382402683D01*
X51354132Y-382395121D01*
X51351300Y-382368768D01*
X51351300Y-107739818D01*
X53554600Y-107739818D01*
X53554600Y-107960180D01*
X53589073Y-108177836D01*
X53657165Y-108387407D01*
X53657166Y-108387410D01*
X53757210Y-108583754D01*
X53757211Y-108583756D01*
X53799478Y-108641934D01*
X53803532Y-108647513D01*
X54237524Y-108213520D01*
X54298845Y-108180037D01*
X54368536Y-108185021D01*
X54424470Y-108226892D01*
X54428291Y-108232292D01*
X54449712Y-108264351D01*
X54449716Y-108264355D01*
X54449716Y-108264356D01*
X54540246Y-108354886D01*
X54572284Y-108376293D01*
X54617089Y-108429906D01*
X54625796Y-108499231D01*
X54595641Y-108562258D01*
X54591074Y-108567076D01*
X54157085Y-109001064D01*
X54157084Y-109001065D01*
X54157085Y-109001066D01*
X54220843Y-109047388D01*
X54319016Y-109097410D01*
X54417188Y-109147432D01*
X54417191Y-109147433D01*
X54521976Y-109181479D01*
X54626764Y-109215526D01*
X54844419Y-109250000D01*
X55064780Y-109250000D01*
X55064781Y-109250000D01*
X55282435Y-109215526D01*
X55492010Y-109147432D01*
X55688360Y-109047386D01*
X55719518Y-109024747D01*
X55746256Y-109015207D01*
X55752114Y-109001065D01*
X55318124Y-108567076D01*
X55284639Y-108505753D01*
X55289623Y-108436062D01*
X55331494Y-108380128D01*
X55336870Y-108376323D01*
X55368951Y-108354888D01*
X55459488Y-108264351D01*
X55480895Y-108232312D01*
X55534503Y-108187510D01*
X55603827Y-108178801D01*
X55666856Y-108208955D01*
X55671676Y-108213524D01*
X56105665Y-108647514D01*
X56105665Y-108647513D01*
X56105666Y-108647514D01*
X56105666Y-108647513D01*
X56119134Y-108641934D01*
X56125351Y-108620764D01*
X56129349Y-108614916D01*
X56151986Y-108583760D01*
X56252032Y-108387410D01*
X56275401Y-108315489D01*
X56320126Y-108177835D01*
X56354600Y-107960181D01*
X56354600Y-107739818D01*
X56320126Y-107522164D01*
X56275058Y-107383458D01*
X56252033Y-107312591D01*
X56252032Y-107312588D01*
X56190202Y-107191241D01*
X56190201Y-107191239D01*
X56164000Y-107139818D01*
X58454600Y-107139818D01*
X58454600Y-107360181D01*
X58466553Y-107435648D01*
X58489073Y-107577836D01*
X58557165Y-107787407D01*
X58557166Y-107787410D01*
X58657210Y-107983754D01*
X58657211Y-107983756D01*
X58699478Y-108041934D01*
X58703532Y-108047513D01*
X59137524Y-107613520D01*
X59198845Y-107580037D01*
X59268536Y-107585021D01*
X59324470Y-107626892D01*
X59328291Y-107632292D01*
X59349712Y-107664351D01*
X59349716Y-107664355D01*
X59349716Y-107664356D01*
X59440246Y-107754886D01*
X59472284Y-107776293D01*
X59517089Y-107829906D01*
X59525796Y-107899231D01*
X59495641Y-107962258D01*
X59491074Y-107967076D01*
X59057085Y-108401064D01*
X59057084Y-108401065D01*
X59057085Y-108401066D01*
X59120843Y-108447388D01*
X59219016Y-108497410D01*
X59317188Y-108547432D01*
X59317191Y-108547433D01*
X59421976Y-108581479D01*
X59526764Y-108615526D01*
X59744419Y-108650000D01*
X59964780Y-108650000D01*
X59964781Y-108650000D01*
X60182435Y-108615526D01*
X60392013Y-108547431D01*
X60409889Y-108538323D01*
X60409891Y-108538322D01*
X60588360Y-108447386D01*
X60619518Y-108424747D01*
X60646256Y-108415207D01*
X60652114Y-108401065D01*
X60218124Y-107967076D01*
X60184639Y-107905753D01*
X60189623Y-107836062D01*
X60231494Y-107780128D01*
X60236870Y-107776323D01*
X60268951Y-107754888D01*
X60359488Y-107664351D01*
X60380895Y-107632312D01*
X60434503Y-107587510D01*
X60503827Y-107578801D01*
X60566856Y-107608955D01*
X60571676Y-107613524D01*
X61005665Y-108047514D01*
X61005665Y-108047513D01*
X61005666Y-108047514D01*
X61005666Y-108047513D01*
X61019134Y-108041934D01*
X61025351Y-108020764D01*
X61029349Y-108014916D01*
X61051986Y-107983760D01*
X61152032Y-107787410D01*
X61220126Y-107577835D01*
X61254600Y-107360181D01*
X61254600Y-107139818D01*
X61220126Y-106922164D01*
X61183092Y-106808184D01*
X61152033Y-106712591D01*
X61152032Y-106712588D01*
X61099747Y-106609975D01*
X61051988Y-106516243D01*
X61005666Y-106452485D01*
X61005664Y-106452485D01*
X60571676Y-106886474D01*
X60510353Y-106919959D01*
X60440661Y-106914975D01*
X60384728Y-106873103D01*
X60380893Y-106867684D01*
X60359486Y-106835646D01*
X60268956Y-106745116D01*
X60268952Y-106745113D01*
X60268951Y-106745112D01*
X60236910Y-106723703D01*
X60192107Y-106670091D01*
X60183400Y-106600766D01*
X60213555Y-106537739D01*
X60218099Y-106532944D01*
X60576397Y-106174648D01*
X75027299Y-106174648D01*
X75058057Y-106329271D01*
X75058064Y-106329302D01*
X75118398Y-106474965D01*
X75118403Y-106474974D01*
X75118413Y-106474991D01*
X75206011Y-106606090D01*
X75206012Y-106606091D01*
X75206017Y-106606097D01*
X75317501Y-106717581D01*
X75317507Y-106717586D01*
X75317511Y-106717589D01*
X75448614Y-106805190D01*
X75448627Y-106805197D01*
X75522146Y-106835649D01*
X75594303Y-106865537D01*
X75594305Y-106865537D01*
X75594310Y-106865539D01*
X75673976Y-106881385D01*
X75742423Y-106895000D01*
X75748953Y-106896299D01*
X75748956Y-106896300D01*
X75748958Y-106896300D01*
X75906644Y-106896300D01*
X75906645Y-106896299D01*
X76061297Y-106865537D01*
X76192375Y-106811243D01*
X76192378Y-106811242D01*
X76193811Y-106810647D01*
X76206972Y-106805197D01*
X76206972Y-106805196D01*
X76206979Y-106805194D01*
X76206982Y-106805191D01*
X76209321Y-106804223D01*
X76209322Y-106804222D01*
X76209327Y-106804221D01*
X76218589Y-106800384D01*
X76227475Y-106791499D01*
X76240954Y-106782492D01*
X76294090Y-106746986D01*
X76325921Y-106731757D01*
X76340846Y-106727084D01*
X76410694Y-106725839D01*
X76423830Y-106729442D01*
X76459913Y-106745921D01*
X76547182Y-106804233D01*
X76548621Y-106805194D01*
X76548623Y-106805195D01*
X76548627Y-106805197D01*
X76622146Y-106835649D01*
X76694303Y-106865537D01*
X76694305Y-106865537D01*
X76694310Y-106865539D01*
X76773976Y-106881385D01*
X76842423Y-106895000D01*
X76848953Y-106896299D01*
X76848956Y-106896300D01*
X76848958Y-106896300D01*
X77006644Y-106896300D01*
X77006645Y-106896299D01*
X77161297Y-106865537D01*
X77292375Y-106811243D01*
X77292378Y-106811242D01*
X77293811Y-106810647D01*
X77306972Y-106805197D01*
X77306972Y-106805196D01*
X77306973Y-106805195D01*
X77306979Y-106805194D01*
X77306981Y-106805192D01*
X77309297Y-106804233D01*
X77309322Y-106804223D01*
X77318589Y-106800384D01*
X77327475Y-106791498D01*
X77438089Y-106717589D01*
X77549589Y-106606089D01*
X77637194Y-106474979D01*
X77697537Y-106329297D01*
X77713142Y-106250848D01*
X78761099Y-106250848D01*
X78791857Y-106405471D01*
X78791864Y-106405502D01*
X78852198Y-106551165D01*
X78852202Y-106551172D01*
X78852207Y-106551182D01*
X78852213Y-106551191D01*
X78939811Y-106682290D01*
X78939812Y-106682291D01*
X78939817Y-106682297D01*
X79051301Y-106793781D01*
X79051307Y-106793786D01*
X79051311Y-106793789D01*
X79182414Y-106881390D01*
X79182427Y-106881397D01*
X79218407Y-106896300D01*
X79267826Y-106916770D01*
X79267827Y-106916770D01*
X79275574Y-106919979D01*
X79328103Y-106941737D01*
X79465052Y-106968978D01*
X79475123Y-106970981D01*
X79477849Y-106971704D01*
X79482755Y-106972500D01*
X79640444Y-106972500D01*
X79644564Y-106972500D01*
X79652414Y-106970118D01*
X79795097Y-106941737D01*
X79940779Y-106881394D01*
X80027893Y-106823184D01*
X80059721Y-106807957D01*
X80074646Y-106803284D01*
X80144494Y-106802039D01*
X80157630Y-106805642D01*
X80193712Y-106822120D01*
X80282421Y-106881394D01*
X80282423Y-106881395D01*
X80282427Y-106881397D01*
X80375574Y-106919979D01*
X80428103Y-106941737D01*
X80565052Y-106968978D01*
X80575134Y-106970983D01*
X80577849Y-106971704D01*
X80582755Y-106972500D01*
X80740444Y-106972500D01*
X80744564Y-106972500D01*
X80752414Y-106970118D01*
X80895097Y-106941737D01*
X81040779Y-106881394D01*
X81171889Y-106793789D01*
X81283389Y-106682289D01*
X81370994Y-106551179D01*
X81379664Y-106530248D01*
X83460099Y-106530248D01*
X83490857Y-106684871D01*
X83490864Y-106684902D01*
X83551198Y-106830565D01*
X83551202Y-106830572D01*
X83551206Y-106830580D01*
X83551213Y-106830591D01*
X83638811Y-106961690D01*
X83638812Y-106961691D01*
X83638817Y-106961697D01*
X83750301Y-107073181D01*
X83750307Y-107073186D01*
X83750311Y-107073189D01*
X83881414Y-107160790D01*
X83881427Y-107160797D01*
X83976073Y-107200000D01*
X84027103Y-107221137D01*
X84027105Y-107221137D01*
X84027110Y-107221139D01*
X84129415Y-107241488D01*
X84172201Y-107249999D01*
X84181753Y-107251899D01*
X84181756Y-107251900D01*
X84181758Y-107251900D01*
X84339444Y-107251900D01*
X84339445Y-107251899D01*
X84494097Y-107221137D01*
X84622133Y-107168103D01*
X84639772Y-107160797D01*
X84639772Y-107160796D01*
X84639779Y-107160794D01*
X84726893Y-107102584D01*
X84758721Y-107087357D01*
X84773646Y-107082684D01*
X84843494Y-107081439D01*
X84856630Y-107085042D01*
X84892713Y-107101521D01*
X84980175Y-107159962D01*
X84980177Y-107159962D01*
X84981421Y-107160794D01*
X84981423Y-107160795D01*
X84981427Y-107160797D01*
X85076073Y-107200000D01*
X85127103Y-107221137D01*
X85127105Y-107221137D01*
X85127110Y-107221139D01*
X85229415Y-107241488D01*
X85272201Y-107249999D01*
X85281753Y-107251899D01*
X85281756Y-107251900D01*
X85281758Y-107251900D01*
X85439444Y-107251900D01*
X85439445Y-107251899D01*
X85594097Y-107221137D01*
X85722133Y-107168103D01*
X85739772Y-107160797D01*
X85739772Y-107160796D01*
X85739779Y-107160794D01*
X85870889Y-107073189D01*
X85982389Y-106961689D01*
X86069994Y-106830579D01*
X86079267Y-106808190D01*
X86089912Y-106782493D01*
X86089912Y-106782492D01*
X86130337Y-106684897D01*
X86154647Y-106562684D01*
X86161100Y-106530245D01*
X86161100Y-106372373D01*
X86160665Y-106370371D01*
X86155076Y-106342273D01*
X86130339Y-106217910D01*
X86130336Y-106217901D01*
X86127574Y-106211234D01*
X86081058Y-106098931D01*
X86076889Y-106088866D01*
X86069999Y-106072231D01*
X86069995Y-106072224D01*
X86069990Y-106072214D01*
X85982389Y-105941111D01*
X85982386Y-105941107D01*
X85982385Y-105941106D01*
X85982381Y-105941101D01*
X85870897Y-105829617D01*
X85870891Y-105829612D01*
X85870890Y-105829611D01*
X85739791Y-105742013D01*
X85739786Y-105742010D01*
X85739785Y-105742009D01*
X85739772Y-105742002D01*
X85739765Y-105741998D01*
X85594102Y-105681664D01*
X85594071Y-105681657D01*
X85439447Y-105650900D01*
X85439445Y-105650900D01*
X85439442Y-105650900D01*
X85281758Y-105650900D01*
X85281755Y-105650900D01*
X85281753Y-105650900D01*
X85127127Y-105681657D01*
X85127096Y-105681664D01*
X84981433Y-105741998D01*
X84981424Y-105742003D01*
X84981412Y-105742010D01*
X84894313Y-105800208D01*
X84862473Y-105815441D01*
X84847554Y-105820112D01*
X84777703Y-105821359D01*
X84764575Y-105817758D01*
X84728485Y-105801277D01*
X84639791Y-105742013D01*
X84639786Y-105742010D01*
X84639785Y-105742009D01*
X84639772Y-105742002D01*
X84639765Y-105741998D01*
X84494102Y-105681664D01*
X84494071Y-105681657D01*
X84339447Y-105650900D01*
X84339445Y-105650900D01*
X84339442Y-105650900D01*
X84181758Y-105650900D01*
X84181755Y-105650900D01*
X84181753Y-105650900D01*
X84027127Y-105681657D01*
X84027096Y-105681664D01*
X83881433Y-105741998D01*
X83881424Y-105742003D01*
X83881407Y-105742013D01*
X83750308Y-105829611D01*
X83750307Y-105829612D01*
X83750301Y-105829617D01*
X83638817Y-105941101D01*
X83638812Y-105941107D01*
X83551213Y-106072207D01*
X83551203Y-106072224D01*
X83551198Y-106072233D01*
X83490864Y-106217896D01*
X83490857Y-106217927D01*
X83460100Y-106372550D01*
X83460100Y-106530245D01*
X83460099Y-106530248D01*
X81379664Y-106530248D01*
X81379666Y-106530244D01*
X81416999Y-106440112D01*
X81431337Y-106405497D01*
X81439897Y-106362458D01*
X81443913Y-106342275D01*
X81443913Y-106342274D01*
X81462100Y-106250844D01*
X81462100Y-106093155D01*
X81462100Y-106092971D01*
X81461664Y-106090966D01*
X81444481Y-106004581D01*
X81431337Y-105938503D01*
X81399772Y-105862298D01*
X81394678Y-105849999D01*
X81374054Y-105800208D01*
X81370997Y-105792827D01*
X81370990Y-105792814D01*
X81283389Y-105661711D01*
X81283386Y-105661707D01*
X81283381Y-105661701D01*
X81171897Y-105550217D01*
X81171891Y-105550212D01*
X81171890Y-105550211D01*
X81040791Y-105462613D01*
X81040790Y-105462612D01*
X81040785Y-105462609D01*
X81040772Y-105462602D01*
X81040765Y-105462598D01*
X80895102Y-105402264D01*
X80895071Y-105402257D01*
X80740447Y-105371500D01*
X80740445Y-105371500D01*
X80740442Y-105371500D01*
X80582758Y-105371500D01*
X80582755Y-105371500D01*
X80582753Y-105371500D01*
X80428127Y-105402257D01*
X80428096Y-105402264D01*
X80282433Y-105462598D01*
X80282424Y-105462603D01*
X80282421Y-105462605D01*
X80282414Y-105462609D01*
X80240294Y-105490753D01*
X80195313Y-105520808D01*
X80163473Y-105536041D01*
X80148554Y-105540712D01*
X80078703Y-105541959D01*
X80065575Y-105538358D01*
X80029485Y-105521877D01*
X79940791Y-105462613D01*
X79940790Y-105462612D01*
X79940785Y-105462609D01*
X79940772Y-105462602D01*
X79940765Y-105462598D01*
X79795102Y-105402264D01*
X79795071Y-105402257D01*
X79640447Y-105371500D01*
X79640445Y-105371500D01*
X79640442Y-105371500D01*
X79482758Y-105371500D01*
X79482755Y-105371500D01*
X79482753Y-105371500D01*
X79328127Y-105402257D01*
X79328096Y-105402264D01*
X79182433Y-105462598D01*
X79182424Y-105462603D01*
X79182407Y-105462613D01*
X79051308Y-105550211D01*
X79051307Y-105550212D01*
X79051301Y-105550217D01*
X78939817Y-105661701D01*
X78939812Y-105661707D01*
X78939811Y-105661708D01*
X78852213Y-105792807D01*
X78852203Y-105792824D01*
X78852198Y-105792833D01*
X78791864Y-105938496D01*
X78791857Y-105938527D01*
X78761100Y-106093150D01*
X78761100Y-106093153D01*
X78761100Y-106250846D01*
X78761100Y-106250848D01*
X78761099Y-106250848D01*
X77713142Y-106250848D01*
X77728300Y-106174642D01*
X77728300Y-106016958D01*
X77728300Y-106016955D01*
X77728299Y-106016953D01*
X77715492Y-105952567D01*
X77713212Y-105941106D01*
X77701947Y-105884473D01*
X77697537Y-105862303D01*
X77684567Y-105830991D01*
X77683996Y-105829613D01*
X77637202Y-105716640D01*
X77637199Y-105716633D01*
X77637197Y-105716627D01*
X77637190Y-105716614D01*
X77549589Y-105585511D01*
X77549586Y-105585507D01*
X77549581Y-105585501D01*
X77438097Y-105474017D01*
X77438091Y-105474012D01*
X77438090Y-105474011D01*
X77306991Y-105386413D01*
X77306986Y-105386410D01*
X77306985Y-105386409D01*
X77306972Y-105386402D01*
X77306965Y-105386398D01*
X77161302Y-105326064D01*
X77161271Y-105326057D01*
X77006647Y-105295300D01*
X77006645Y-105295300D01*
X77006642Y-105295300D01*
X76848958Y-105295300D01*
X76848955Y-105295300D01*
X76848953Y-105295300D01*
X76694327Y-105326057D01*
X76694296Y-105326064D01*
X76548633Y-105386398D01*
X76548624Y-105386403D01*
X76548612Y-105386410D01*
X76461513Y-105444608D01*
X76429673Y-105459841D01*
X76414754Y-105464512D01*
X76344903Y-105465759D01*
X76331775Y-105462158D01*
X76295685Y-105445677D01*
X76206991Y-105386413D01*
X76206986Y-105386410D01*
X76206985Y-105386409D01*
X76206972Y-105386402D01*
X76206965Y-105386398D01*
X76061302Y-105326064D01*
X76061271Y-105326057D01*
X75906647Y-105295300D01*
X75906645Y-105295300D01*
X75906642Y-105295300D01*
X75748958Y-105295300D01*
X75748955Y-105295300D01*
X75748953Y-105295300D01*
X75594327Y-105326057D01*
X75594296Y-105326064D01*
X75448633Y-105386398D01*
X75448624Y-105386403D01*
X75448607Y-105386413D01*
X75317508Y-105474011D01*
X75317507Y-105474012D01*
X75317501Y-105474017D01*
X75206017Y-105585501D01*
X75206012Y-105585507D01*
X75206011Y-105585508D01*
X75118413Y-105716607D01*
X75118403Y-105716624D01*
X75118398Y-105716633D01*
X75058064Y-105862296D01*
X75058057Y-105862327D01*
X75027300Y-106016950D01*
X75027300Y-106016953D01*
X75027300Y-106174646D01*
X75027300Y-106174648D01*
X75027299Y-106174648D01*
X60576397Y-106174648D01*
X60652113Y-106098932D01*
X60644161Y-106093155D01*
X60588356Y-106052611D01*
X60588354Y-106052610D01*
X60392010Y-105952566D01*
X60392007Y-105952565D01*
X60182436Y-105884473D01*
X60073608Y-105867236D01*
X59964781Y-105850000D01*
X59964780Y-105850000D01*
X59744414Y-105850000D01*
X59526762Y-105884473D01*
X59317191Y-105952565D01*
X59317188Y-105952566D01*
X59120834Y-106052615D01*
X59120830Y-106052617D01*
X59057085Y-106098931D01*
X59057085Y-106098932D01*
X59491075Y-106532922D01*
X59524560Y-106594245D01*
X59519576Y-106663937D01*
X59477704Y-106719870D01*
X59472288Y-106723703D01*
X59440248Y-106745112D01*
X59440243Y-106745116D01*
X59349716Y-106835643D01*
X59349712Y-106835648D01*
X59328303Y-106867688D01*
X59274690Y-106912491D01*
X59205364Y-106921197D01*
X59142338Y-106891040D01*
X59137522Y-106886475D01*
X58703532Y-106452485D01*
X58703531Y-106452485D01*
X58657217Y-106516230D01*
X58657215Y-106516234D01*
X58557166Y-106712588D01*
X58557165Y-106712591D01*
X58489073Y-106922162D01*
X58462065Y-107092684D01*
X58454600Y-107139818D01*
X56164000Y-107139818D01*
X56162941Y-107137739D01*
X56151988Y-107116243D01*
X56105666Y-107052485D01*
X56105664Y-107052485D01*
X55671676Y-107486474D01*
X55610353Y-107519959D01*
X55540661Y-107514975D01*
X55484728Y-107473103D01*
X55480893Y-107467684D01*
X55459486Y-107435646D01*
X55368956Y-107345116D01*
X55368952Y-107345113D01*
X55368951Y-107345112D01*
X55336910Y-107323703D01*
X55292107Y-107270091D01*
X55283400Y-107200766D01*
X55313555Y-107137739D01*
X55318099Y-107132944D01*
X55752113Y-106698932D01*
X55732800Y-106684901D01*
X55688356Y-106652611D01*
X55688354Y-106652610D01*
X55492010Y-106552566D01*
X55492007Y-106552565D01*
X55282436Y-106484473D01*
X55173608Y-106467236D01*
X55064781Y-106450000D01*
X55064780Y-106450000D01*
X54844414Y-106450000D01*
X54626762Y-106484473D01*
X54417191Y-106552565D01*
X54417188Y-106552566D01*
X54220834Y-106652615D01*
X54220830Y-106652617D01*
X54157084Y-106698931D01*
X54591075Y-107132922D01*
X54624560Y-107194245D01*
X54619576Y-107263937D01*
X54577704Y-107319870D01*
X54572288Y-107323703D01*
X54540248Y-107345112D01*
X54540243Y-107345116D01*
X54449716Y-107435643D01*
X54449712Y-107435648D01*
X54428303Y-107467688D01*
X54374690Y-107512491D01*
X54305364Y-107521197D01*
X54242338Y-107491040D01*
X54237522Y-107486475D01*
X53803532Y-107052485D01*
X53803531Y-107052485D01*
X53757217Y-107116230D01*
X53757215Y-107116234D01*
X53657166Y-107312588D01*
X53657165Y-107312591D01*
X53589073Y-107522162D01*
X53554600Y-107739818D01*
X51351300Y-107739818D01*
X51351300Y-103837848D01*
X88302699Y-103837848D01*
X88333457Y-103992471D01*
X88333464Y-103992502D01*
X88393798Y-104138165D01*
X88393803Y-104138174D01*
X88393813Y-104138191D01*
X88481411Y-104269290D01*
X88481412Y-104269291D01*
X88481417Y-104269297D01*
X88592901Y-104380781D01*
X88592907Y-104380786D01*
X88592911Y-104380789D01*
X88724014Y-104468390D01*
X88724027Y-104468397D01*
X88839218Y-104516110D01*
X88869703Y-104528737D01*
X89019321Y-104558498D01*
X89021594Y-104559052D01*
X89024355Y-104559500D01*
X89024356Y-104559500D01*
X89151470Y-104559500D01*
X89186406Y-104564523D01*
X89201404Y-104568927D01*
X89260155Y-104606672D01*
X89261342Y-104608041D01*
X89288818Y-104662902D01*
X89290463Y-104670460D01*
X89293300Y-104696831D01*
X89293300Y-104828446D01*
X89293300Y-104828448D01*
X89293299Y-104828448D01*
X89324057Y-104983071D01*
X89324064Y-104983102D01*
X89384398Y-105128765D01*
X89384403Y-105128774D01*
X89384413Y-105128791D01*
X89472011Y-105259890D01*
X89472012Y-105259891D01*
X89472017Y-105259897D01*
X89583501Y-105371381D01*
X89583507Y-105371386D01*
X89583511Y-105371389D01*
X89714614Y-105458990D01*
X89714627Y-105458997D01*
X89846747Y-105513722D01*
X89860303Y-105519337D01*
X89989319Y-105545000D01*
X90007330Y-105548582D01*
X90010048Y-105549303D01*
X90014955Y-105550100D01*
X90172644Y-105550100D01*
X90176764Y-105550100D01*
X90184614Y-105547718D01*
X90327297Y-105519337D01*
X90464259Y-105462606D01*
X90472972Y-105458997D01*
X90472972Y-105458996D01*
X90472979Y-105458994D01*
X90472983Y-105458991D01*
X90475318Y-105458024D01*
X90475333Y-105458018D01*
X90484591Y-105454183D01*
X90493475Y-105445298D01*
X90604089Y-105371389D01*
X90715589Y-105259889D01*
X90803194Y-105128779D01*
X90863537Y-104983097D01*
X90894300Y-104828442D01*
X90894300Y-104670758D01*
X90894300Y-104670755D01*
X90894300Y-104670571D01*
X90893864Y-104668566D01*
X90866050Y-104528737D01*
X90863537Y-104516103D01*
X90843777Y-104468397D01*
X90803197Y-104370427D01*
X90803193Y-104370420D01*
X90759814Y-104305498D01*
X90759814Y-104305497D01*
X90715587Y-104239307D01*
X90604097Y-104127817D01*
X90604091Y-104127812D01*
X90604090Y-104127811D01*
X90472991Y-104040213D01*
X90472990Y-104040212D01*
X90472985Y-104040209D01*
X90472972Y-104040202D01*
X90472965Y-104040198D01*
X90327302Y-103979864D01*
X90327271Y-103979857D01*
X90172647Y-103949100D01*
X90172645Y-103949100D01*
X90172642Y-103949100D01*
X90045530Y-103949100D01*
X90010589Y-103944075D01*
X89995590Y-103939670D01*
X89936844Y-103901927D01*
X89935657Y-103900558D01*
X89908177Y-103845683D01*
X89906532Y-103838121D01*
X89903700Y-103811768D01*
X89903700Y-103679971D01*
X89903264Y-103677966D01*
X89872939Y-103525510D01*
X89872936Y-103525501D01*
X89824386Y-103408289D01*
X89812597Y-103379827D01*
X89812590Y-103379814D01*
X89724989Y-103248711D01*
X89724986Y-103248707D01*
X89724981Y-103248701D01*
X89613497Y-103137217D01*
X89613490Y-103137211D01*
X89482391Y-103049613D01*
X89482390Y-103049612D01*
X89482385Y-103049609D01*
X89482372Y-103049602D01*
X89482365Y-103049598D01*
X89336702Y-102989264D01*
X89336671Y-102989257D01*
X89182047Y-102958500D01*
X89182045Y-102958500D01*
X89182042Y-102958500D01*
X89024358Y-102958500D01*
X89024355Y-102958500D01*
X89024353Y-102958500D01*
X88869727Y-102989257D01*
X88869696Y-102989264D01*
X88724033Y-103049598D01*
X88724024Y-103049603D01*
X88724007Y-103049613D01*
X88592909Y-103137211D01*
X88592901Y-103137217D01*
X88481417Y-103248701D01*
X88481412Y-103248707D01*
X88481411Y-103248708D01*
X88393813Y-103379807D01*
X88393803Y-103379824D01*
X88393801Y-103379829D01*
X88333464Y-103525496D01*
X88333457Y-103525527D01*
X88302700Y-103680150D01*
X88302700Y-103680153D01*
X88302700Y-103837846D01*
X88302700Y-103837848D01*
X88302699Y-103837848D01*
X51351300Y-103837848D01*
X51351300Y-99570648D01*
X78761099Y-99570648D01*
X78791857Y-99725271D01*
X78791864Y-99725302D01*
X78852198Y-99870965D01*
X78852203Y-99870974D01*
X78852213Y-99870991D01*
X78939811Y-100002090D01*
X78939812Y-100002091D01*
X78939817Y-100002097D01*
X79051301Y-100113581D01*
X79051307Y-100113586D01*
X79051311Y-100113589D01*
X79182414Y-100201190D01*
X79182427Y-100201197D01*
X79328098Y-100261535D01*
X79328103Y-100261537D01*
X79482753Y-100292299D01*
X79482756Y-100292300D01*
X79482758Y-100292300D01*
X79640444Y-100292300D01*
X79640445Y-100292299D01*
X79795097Y-100261537D01*
X79907766Y-100214867D01*
X79934234Y-100203904D01*
X79937020Y-100202933D01*
X79938462Y-100202266D01*
X79943134Y-100200218D01*
X79952389Y-100196385D01*
X79961275Y-100187499D01*
X80027887Y-100142989D01*
X80059721Y-100127757D01*
X80074646Y-100123084D01*
X80144494Y-100121839D01*
X80157630Y-100125442D01*
X80193713Y-100141921D01*
X80282419Y-100201193D01*
X80282420Y-100201193D01*
X80282421Y-100201194D01*
X80282423Y-100201195D01*
X80282427Y-100201197D01*
X80428098Y-100261535D01*
X80428103Y-100261537D01*
X80582753Y-100292299D01*
X80582756Y-100292300D01*
X80582758Y-100292300D01*
X80740444Y-100292300D01*
X80740445Y-100292299D01*
X80895097Y-100261537D01*
X81007766Y-100214867D01*
X81034234Y-100203904D01*
X81037025Y-100202931D01*
X81038468Y-100202264D01*
X81043128Y-100200221D01*
X81052387Y-100196385D01*
X81061271Y-100187501D01*
X81171889Y-100113589D01*
X81283389Y-100002089D01*
X81370994Y-99870979D01*
X81411227Y-99773848D01*
X83460099Y-99773848D01*
X83490857Y-99928471D01*
X83490864Y-99928502D01*
X83551198Y-100074165D01*
X83551203Y-100074174D01*
X83551213Y-100074191D01*
X83638811Y-100205290D01*
X83638812Y-100205291D01*
X83638817Y-100205297D01*
X83750301Y-100316781D01*
X83750307Y-100316786D01*
X83750311Y-100316789D01*
X83881414Y-100404390D01*
X83881427Y-100404397D01*
X84027098Y-100464735D01*
X84027103Y-100464737D01*
X84181753Y-100495499D01*
X84181756Y-100495500D01*
X84181758Y-100495500D01*
X84339444Y-100495500D01*
X84339445Y-100495499D01*
X84494097Y-100464737D01*
X84639779Y-100404394D01*
X84726893Y-100346184D01*
X84758721Y-100330957D01*
X84773646Y-100326284D01*
X84843494Y-100325039D01*
X84856630Y-100328642D01*
X84892713Y-100345121D01*
X84981419Y-100404393D01*
X84981420Y-100404393D01*
X84981421Y-100404394D01*
X84981423Y-100404395D01*
X84981427Y-100404397D01*
X85127098Y-100464735D01*
X85127103Y-100464737D01*
X85281753Y-100495499D01*
X85281756Y-100495500D01*
X85281758Y-100495500D01*
X85439444Y-100495500D01*
X85439445Y-100495499D01*
X85594097Y-100464737D01*
X85739779Y-100404394D01*
X85870889Y-100316789D01*
X85982389Y-100205289D01*
X86069994Y-100074179D01*
X86099854Y-100002090D01*
X86100719Y-100000002D01*
X95250000Y-100000002D01*
X95311448Y-102479347D01*
X95311450Y-102479378D01*
X95494663Y-104941872D01*
X95494666Y-104941909D01*
X95797947Y-107383458D01*
X95797958Y-107383533D01*
X96219603Y-109800029D01*
X96219615Y-109800092D01*
X96613933Y-111548849D01*
X96757945Y-112187528D01*
X97411256Y-114541763D01*
X98177847Y-116858679D01*
X98177855Y-116858703D01*
X99056012Y-119134159D01*
X99056014Y-119134163D01*
X99056018Y-119134173D01*
X99056020Y-119134177D01*
X100044078Y-121364160D01*
X101140323Y-123544529D01*
X101140331Y-123544543D01*
X101140340Y-123544561D01*
X101140346Y-123544572D01*
X102343043Y-125671162D01*
X102343065Y-125671199D01*
X103592959Y-127648852D01*
X103650585Y-127740032D01*
X105061206Y-129746969D01*
X105061217Y-129746983D01*
X106573232Y-131687910D01*
X108184938Y-133558721D01*
X108184942Y-133558725D01*
X109894661Y-135355347D01*
X144995270Y-100254729D01*
X145056593Y-100221245D01*
X145082951Y-100218411D01*
X149657588Y-100218411D01*
X149724627Y-100238096D01*
X149770382Y-100290900D01*
X149781588Y-100342411D01*
X149781588Y-104885460D01*
X149761903Y-104952499D01*
X149745269Y-104973141D01*
X114644653Y-140073749D01*
X114644653Y-140073750D01*
X116213606Y-141566812D01*
X116441278Y-141783472D01*
X118312089Y-143395177D01*
X118312094Y-143395181D01*
X118312100Y-143395186D01*
X120253030Y-144907204D01*
X122259967Y-146317826D01*
X122949582Y-146753668D01*
X124328799Y-147625344D01*
X124328836Y-147625366D01*
X126455425Y-148828063D01*
X126455436Y-148828069D01*
X126455446Y-148828074D01*
X126455469Y-148828087D01*
X128635838Y-149924332D01*
X130865820Y-150912390D01*
X130865833Y-150912395D01*
X130865837Y-150912397D01*
X133141294Y-151790555D01*
X133141305Y-151790558D01*
X133141319Y-151790564D01*
X135458235Y-152557154D01*
X137812470Y-153210466D01*
X140199926Y-153748800D01*
X141845306Y-154035895D01*
X142616464Y-154170452D01*
X142616469Y-154170452D01*
X142616505Y-154170459D01*
X143272044Y-154251887D01*
X145058087Y-154473743D01*
X145058101Y-154473744D01*
X145058108Y-154473745D01*
X147520638Y-154656962D01*
X149999995Y-154718410D01*
X152479353Y-154656961D01*
X154941883Y-154473744D01*
X154941891Y-154473742D01*
X154941903Y-154473742D01*
X156363358Y-154297173D01*
X157383486Y-154170457D01*
X159800064Y-153748798D01*
X162187520Y-153210464D01*
X164541755Y-152557153D01*
X166858671Y-151790562D01*
X166858690Y-151790554D01*
X166858695Y-151790553D01*
X169134151Y-150912396D01*
X169134151Y-150912395D01*
X169134169Y-150912389D01*
X171364152Y-149924331D01*
X173544521Y-148828086D01*
X173544562Y-148828063D01*
X173544564Y-148828062D01*
X175671155Y-147625365D01*
X175671154Y-147625365D01*
X175671178Y-147625352D01*
X175671197Y-147625339D01*
X175671207Y-147625334D01*
X176161741Y-147315312D01*
X177740024Y-146317825D01*
X179746962Y-144907204D01*
X181687893Y-143395186D01*
X183558720Y-141783469D01*
X185355343Y-140073750D01*
X180636939Y-135355346D01*
X150254730Y-104973139D01*
X150221245Y-104911816D01*
X150218411Y-104885458D01*
X150218411Y-100342411D01*
X150238096Y-100275372D01*
X150290900Y-100229617D01*
X150342411Y-100218411D01*
X154917049Y-100218411D01*
X154984088Y-100238096D01*
X155004729Y-100254729D01*
X190105339Y-135355347D01*
X191815058Y-133558725D01*
X193426776Y-131687900D01*
X194938794Y-129746969D01*
X196349415Y-127740032D01*
X197656942Y-125671186D01*
X198859677Y-123544529D01*
X199955922Y-121364160D01*
X200943980Y-119134177D01*
X201822153Y-116858679D01*
X202588744Y-114541763D01*
X203242055Y-112187528D01*
X203780389Y-109800072D01*
X204202048Y-107383493D01*
X204270202Y-106834818D01*
X218247000Y-106834818D01*
X218247000Y-107055181D01*
X218258953Y-107130648D01*
X218281473Y-107272836D01*
X218349565Y-107482407D01*
X218349566Y-107482410D01*
X218449610Y-107678754D01*
X218449611Y-107678756D01*
X218493974Y-107739819D01*
X218495932Y-107742513D01*
X218929924Y-107308520D01*
X218991245Y-107275037D01*
X219060936Y-107280021D01*
X219116870Y-107321892D01*
X219120691Y-107327292D01*
X219142112Y-107359351D01*
X219142116Y-107359355D01*
X219142116Y-107359356D01*
X219232646Y-107449886D01*
X219264684Y-107471293D01*
X219309489Y-107524906D01*
X219318196Y-107594231D01*
X219288041Y-107657258D01*
X219283474Y-107662076D01*
X218849485Y-108096064D01*
X218849484Y-108096065D01*
X218849485Y-108096066D01*
X218913243Y-108142388D01*
X219001799Y-108187510D01*
X219109588Y-108242432D01*
X219109591Y-108242433D01*
X219177062Y-108264355D01*
X219319164Y-108310526D01*
X219536819Y-108345000D01*
X219757180Y-108345000D01*
X219757181Y-108345000D01*
X219974835Y-108310526D01*
X220184410Y-108242432D01*
X220380760Y-108142386D01*
X220411918Y-108119747D01*
X220438656Y-108110207D01*
X220444514Y-108096065D01*
X220010524Y-107662076D01*
X219977039Y-107600753D01*
X219982023Y-107531062D01*
X220023894Y-107475128D01*
X220029270Y-107471323D01*
X220061351Y-107449888D01*
X220151888Y-107359351D01*
X220173295Y-107327312D01*
X220226903Y-107282510D01*
X220296227Y-107273801D01*
X220359256Y-107303955D01*
X220364076Y-107308524D01*
X220798065Y-107742514D01*
X220798065Y-107742513D01*
X220798066Y-107742514D01*
X220798066Y-107742513D01*
X220811534Y-107736934D01*
X220817751Y-107715764D01*
X220821749Y-107709916D01*
X220844386Y-107678760D01*
X220944432Y-107482410D01*
X220959896Y-107434818D01*
X223147000Y-107434818D01*
X223147000Y-107655181D01*
X223148453Y-107664355D01*
X223181473Y-107872836D01*
X223249565Y-108082407D01*
X223249566Y-108082410D01*
X223349610Y-108278754D01*
X223349611Y-108278756D01*
X223391878Y-108336934D01*
X223395932Y-108342513D01*
X223829924Y-107908520D01*
X223891245Y-107875037D01*
X223960936Y-107880021D01*
X224016870Y-107921892D01*
X224020691Y-107927292D01*
X224042112Y-107959351D01*
X224042116Y-107959355D01*
X224042116Y-107959356D01*
X224132646Y-108049886D01*
X224164684Y-108071293D01*
X224209489Y-108124906D01*
X224218196Y-108194231D01*
X224188041Y-108257258D01*
X224183474Y-108262076D01*
X223749485Y-108696064D01*
X223749484Y-108696065D01*
X223749485Y-108696066D01*
X223813243Y-108742388D01*
X223911416Y-108792410D01*
X224009588Y-108842432D01*
X224009591Y-108842433D01*
X224114376Y-108876479D01*
X224219164Y-108910526D01*
X224436819Y-108945000D01*
X224657180Y-108945000D01*
X224657181Y-108945000D01*
X224874835Y-108910526D01*
X225084410Y-108842432D01*
X225280760Y-108742386D01*
X225311918Y-108719747D01*
X225338656Y-108710207D01*
X225344514Y-108696065D01*
X224910524Y-108262076D01*
X224877039Y-108200753D01*
X224882023Y-108131062D01*
X224923894Y-108075128D01*
X224929270Y-108071323D01*
X224961351Y-108049888D01*
X225051888Y-107959351D01*
X225073295Y-107927312D01*
X225126903Y-107882510D01*
X225196227Y-107873801D01*
X225259256Y-107903955D01*
X225264076Y-107908524D01*
X225698065Y-108342514D01*
X225698065Y-108342513D01*
X225698066Y-108342514D01*
X225698066Y-108342513D01*
X225711534Y-108336934D01*
X225717751Y-108315764D01*
X225721749Y-108309916D01*
X225744386Y-108278760D01*
X225844432Y-108082410D01*
X225912526Y-107872835D01*
X225947000Y-107655181D01*
X225947000Y-107434818D01*
X225912526Y-107217164D01*
X225868427Y-107081439D01*
X225844433Y-107007591D01*
X225844432Y-107007588D01*
X225787727Y-106896300D01*
X225744388Y-106811243D01*
X225698066Y-106747485D01*
X225698064Y-106747485D01*
X225264076Y-107181474D01*
X225202753Y-107214959D01*
X225133061Y-107209975D01*
X225077128Y-107168103D01*
X225073293Y-107162684D01*
X225051886Y-107130646D01*
X224961356Y-107040116D01*
X224961352Y-107040113D01*
X224961351Y-107040112D01*
X224929310Y-107018703D01*
X224884507Y-106965091D01*
X224875800Y-106895766D01*
X224905955Y-106832739D01*
X224910499Y-106827944D01*
X225344513Y-106393932D01*
X225315093Y-106372558D01*
X225280756Y-106347611D01*
X225280754Y-106347610D01*
X225084410Y-106247566D01*
X225084407Y-106247565D01*
X224874836Y-106179473D01*
X224766008Y-106162236D01*
X224657181Y-106145000D01*
X224657180Y-106145000D01*
X224436814Y-106145000D01*
X224219162Y-106179473D01*
X224009591Y-106247565D01*
X224009588Y-106247566D01*
X223813234Y-106347615D01*
X223813230Y-106347617D01*
X223749484Y-106393931D01*
X224183475Y-106827922D01*
X224216960Y-106889245D01*
X224211976Y-106958937D01*
X224170104Y-107014870D01*
X224164688Y-107018703D01*
X224132648Y-107040112D01*
X224132643Y-107040116D01*
X224042116Y-107130643D01*
X224042112Y-107130648D01*
X224020703Y-107162688D01*
X223967090Y-107207491D01*
X223897764Y-107216197D01*
X223834738Y-107186040D01*
X223829922Y-107181475D01*
X223395932Y-106747485D01*
X223395931Y-106747485D01*
X223349617Y-106811230D01*
X223349615Y-106811234D01*
X223249566Y-107007588D01*
X223249565Y-107007591D01*
X223181473Y-107217162D01*
X223161208Y-107345112D01*
X223147000Y-107434818D01*
X220959896Y-107434818D01*
X220973929Y-107391628D01*
X221012526Y-107272835D01*
X221047000Y-107055181D01*
X221047000Y-106834818D01*
X221018141Y-106652615D01*
X221012526Y-106617163D01*
X220991090Y-106551191D01*
X220967800Y-106479509D01*
X220967799Y-106479507D01*
X220944433Y-106407591D01*
X220844388Y-106211243D01*
X220798066Y-106147485D01*
X220798064Y-106147485D01*
X220364076Y-106581474D01*
X220302753Y-106614959D01*
X220233061Y-106609975D01*
X220177128Y-106568103D01*
X220173293Y-106562684D01*
X220151886Y-106530646D01*
X220061356Y-106440116D01*
X220061352Y-106440113D01*
X220061351Y-106440112D01*
X220029310Y-106418703D01*
X219984507Y-106365091D01*
X219975800Y-106295766D01*
X220005955Y-106232739D01*
X220010499Y-106227944D01*
X220444513Y-105793932D01*
X220443000Y-105792833D01*
X220380756Y-105747611D01*
X220380754Y-105747610D01*
X220184410Y-105647566D01*
X220184407Y-105647565D01*
X219974836Y-105579473D01*
X219866008Y-105562236D01*
X219757181Y-105545000D01*
X219757180Y-105545000D01*
X219536814Y-105545000D01*
X219319162Y-105579473D01*
X219109591Y-105647565D01*
X219109588Y-105647566D01*
X218913234Y-105747615D01*
X218913230Y-105747617D01*
X218849485Y-105793931D01*
X218849485Y-105793932D01*
X219283475Y-106227922D01*
X219316960Y-106289245D01*
X219311976Y-106358937D01*
X219270104Y-106414870D01*
X219264688Y-106418703D01*
X219232648Y-106440112D01*
X219232643Y-106440116D01*
X219142116Y-106530643D01*
X219142112Y-106530648D01*
X219120703Y-106562688D01*
X219067090Y-106607491D01*
X218997764Y-106616197D01*
X218934738Y-106586040D01*
X218929922Y-106581475D01*
X218495932Y-106147485D01*
X218495931Y-106147485D01*
X218449617Y-106211230D01*
X218449615Y-106211234D01*
X218349566Y-106407588D01*
X218349565Y-106407591D01*
X218281473Y-106617162D01*
X218247672Y-106830574D01*
X218247000Y-106834818D01*
X204270202Y-106834818D01*
X204352206Y-106174648D01*
X204505333Y-104941909D01*
X204505336Y-104941872D01*
X204509534Y-104885458D01*
X204525508Y-104670753D01*
X204544012Y-104422048D01*
X220687499Y-104422048D01*
X220718257Y-104576671D01*
X220718264Y-104576702D01*
X220778598Y-104722365D01*
X220778603Y-104722374D01*
X220778613Y-104722391D01*
X220866211Y-104853490D01*
X220866212Y-104853491D01*
X220866217Y-104853497D01*
X220977701Y-104964981D01*
X220977707Y-104964986D01*
X220977711Y-104964989D01*
X221108814Y-105052590D01*
X221108827Y-105052597D01*
X221254498Y-105112935D01*
X221254503Y-105112937D01*
X221409153Y-105143699D01*
X221409156Y-105143700D01*
X221409158Y-105143700D01*
X221566844Y-105143700D01*
X221566845Y-105143699D01*
X221721497Y-105112937D01*
X221867179Y-105052594D01*
X221998289Y-104964989D01*
X222109789Y-104853489D01*
X222197394Y-104722379D01*
X222257737Y-104576697D01*
X222288500Y-104422042D01*
X222288500Y-104264358D01*
X222288500Y-104264355D01*
X222288500Y-104264176D01*
X222288076Y-104262227D01*
X222283518Y-104239310D01*
X222263403Y-104138185D01*
X222257739Y-104109710D01*
X222257736Y-104109701D01*
X222254290Y-104101381D01*
X222208109Y-103989889D01*
X222197397Y-103964027D01*
X222197390Y-103964014D01*
X222109789Y-103832911D01*
X222109786Y-103832907D01*
X222109781Y-103832901D01*
X221998297Y-103721417D01*
X221998291Y-103721412D01*
X221998290Y-103721411D01*
X221867191Y-103633813D01*
X221867190Y-103633812D01*
X221867185Y-103633809D01*
X221867172Y-103633802D01*
X221867165Y-103633798D01*
X221721502Y-103573464D01*
X221721471Y-103573457D01*
X221646017Y-103558448D01*
X223786299Y-103558448D01*
X223817057Y-103713071D01*
X223817064Y-103713102D01*
X223877398Y-103858765D01*
X223877403Y-103858774D01*
X223877413Y-103858791D01*
X223965011Y-103989890D01*
X223965017Y-103989897D01*
X224076501Y-104101381D01*
X224076507Y-104101386D01*
X224076511Y-104101389D01*
X224207614Y-104188990D01*
X224207627Y-104188997D01*
X224207629Y-104188997D01*
X224207633Y-104189000D01*
X224269211Y-104214505D01*
X224329095Y-104239310D01*
X224353303Y-104249337D01*
X224502603Y-104279034D01*
X224504854Y-104279571D01*
X224504917Y-104279607D01*
X224507955Y-104280100D01*
X224665644Y-104280100D01*
X224669764Y-104280100D01*
X224677614Y-104277718D01*
X224820297Y-104249337D01*
X224965979Y-104188994D01*
X225097089Y-104101389D01*
X225097097Y-104101381D01*
X225208588Y-103989891D01*
X225208589Y-103989889D01*
X225296194Y-103858779D01*
X225356537Y-103713097D01*
X225387300Y-103558442D01*
X225387300Y-103400758D01*
X225387300Y-103400755D01*
X225387300Y-103400571D01*
X225386864Y-103398566D01*
X225356539Y-103246110D01*
X225356536Y-103246101D01*
X225311433Y-103137211D01*
X225296197Y-103100427D01*
X225296190Y-103100414D01*
X225208589Y-102969311D01*
X225208586Y-102969307D01*
X225208581Y-102969301D01*
X225097097Y-102857817D01*
X225097090Y-102857811D01*
X224965991Y-102770213D01*
X224965990Y-102770212D01*
X224965985Y-102770209D01*
X224965972Y-102770202D01*
X224965965Y-102770198D01*
X224820302Y-102709864D01*
X224820271Y-102709857D01*
X224665647Y-102679100D01*
X224665645Y-102679100D01*
X224665642Y-102679100D01*
X224507958Y-102679100D01*
X224507955Y-102679100D01*
X224507953Y-102679100D01*
X224353327Y-102709857D01*
X224353296Y-102709864D01*
X224207633Y-102770198D01*
X224207624Y-102770203D01*
X224207607Y-102770213D01*
X224076509Y-102857811D01*
X224076501Y-102857817D01*
X223965017Y-102969301D01*
X223965012Y-102969307D01*
X223965011Y-102969308D01*
X223877413Y-103100407D01*
X223877403Y-103100424D01*
X223877398Y-103100433D01*
X223817064Y-103246096D01*
X223817057Y-103246127D01*
X223786300Y-103400750D01*
X223786300Y-103400753D01*
X223786300Y-103558446D01*
X223786300Y-103558448D01*
X223786299Y-103558448D01*
X221646017Y-103558448D01*
X221566847Y-103542700D01*
X221566845Y-103542700D01*
X221566842Y-103542700D01*
X221409158Y-103542700D01*
X221409155Y-103542700D01*
X221409153Y-103542700D01*
X221254527Y-103573457D01*
X221254496Y-103573464D01*
X221108833Y-103633798D01*
X221108824Y-103633803D01*
X221108807Y-103633813D01*
X220977708Y-103721411D01*
X220977707Y-103721412D01*
X220977701Y-103721417D01*
X220866217Y-103832901D01*
X220866212Y-103832907D01*
X220866211Y-103832908D01*
X220778613Y-103964007D01*
X220778603Y-103964024D01*
X220778598Y-103964033D01*
X220718264Y-104109696D01*
X220718257Y-104109727D01*
X220687500Y-104264350D01*
X220687500Y-104264353D01*
X220687500Y-104422046D01*
X220687500Y-104422048D01*
X220687499Y-104422048D01*
X204544012Y-104422048D01*
X204556883Y-104249061D01*
X204630943Y-103253648D01*
X214743899Y-103253648D01*
X214774657Y-103408271D01*
X214774664Y-103408302D01*
X214834998Y-103553965D01*
X214835003Y-103553974D01*
X214835013Y-103553991D01*
X214922611Y-103685090D01*
X214922612Y-103685091D01*
X214922617Y-103685097D01*
X215034101Y-103796581D01*
X215034107Y-103796586D01*
X215034111Y-103796589D01*
X215165214Y-103884190D01*
X215165227Y-103884197D01*
X215274395Y-103929415D01*
X215310903Y-103944537D01*
X215460802Y-103974354D01*
X215462825Y-103974857D01*
X215465555Y-103975300D01*
X215623244Y-103975300D01*
X215627364Y-103975300D01*
X215635214Y-103972918D01*
X215777897Y-103944537D01*
X215923579Y-103884194D01*
X216054689Y-103796589D01*
X216166189Y-103685089D01*
X216253794Y-103553979D01*
X216314137Y-103408297D01*
X216319800Y-103379827D01*
X216321661Y-103370474D01*
X216321661Y-103370473D01*
X216344468Y-103255810D01*
X216344900Y-103253824D01*
X216344900Y-103095771D01*
X216344464Y-103093766D01*
X216314139Y-102941310D01*
X216314136Y-102941301D01*
X216314134Y-102941296D01*
X216279554Y-102857811D01*
X216253797Y-102795627D01*
X216253791Y-102795616D01*
X216244896Y-102782304D01*
X216240766Y-102773281D01*
X216240167Y-102769147D01*
X216235179Y-102758721D01*
X216231030Y-102745471D01*
X216229785Y-102675614D01*
X216266501Y-102616176D01*
X216274696Y-102608815D01*
X216299954Y-102593084D01*
X216299198Y-102591670D01*
X216304569Y-102588797D01*
X216304579Y-102588794D01*
X216435689Y-102501189D01*
X216547189Y-102389689D01*
X216634794Y-102258579D01*
X216640212Y-102245500D01*
X216676878Y-102156979D01*
X216695137Y-102112897D01*
X216725900Y-101958242D01*
X216725900Y-101800558D01*
X216725900Y-101800555D01*
X216725900Y-101800373D01*
X216725465Y-101798372D01*
X216705689Y-101698953D01*
X216701620Y-101678497D01*
X216701618Y-101678489D01*
X216695138Y-101645910D01*
X216695137Y-101645903D01*
X216695135Y-101645898D01*
X216644581Y-101523848D01*
X219747699Y-101523848D01*
X219778457Y-101678471D01*
X219778464Y-101678502D01*
X219838798Y-101824165D01*
X219838803Y-101824174D01*
X219838813Y-101824191D01*
X219926411Y-101955290D01*
X219926412Y-101955291D01*
X219926417Y-101955297D01*
X220037901Y-102066781D01*
X220037907Y-102066786D01*
X220037911Y-102066789D01*
X220169014Y-102154390D01*
X220169027Y-102154397D01*
X220314698Y-102214735D01*
X220314703Y-102214737D01*
X220469353Y-102245499D01*
X220469356Y-102245500D01*
X220469358Y-102245500D01*
X220627044Y-102245500D01*
X220627045Y-102245499D01*
X220781697Y-102214737D01*
X220856951Y-102183566D01*
X220897957Y-102166580D01*
X220932146Y-102157854D01*
X220947691Y-102156183D01*
X221016441Y-102168583D01*
X221023012Y-102171872D01*
X221070617Y-102213868D01*
X221087268Y-102238787D01*
X221120211Y-102288090D01*
X221120212Y-102288091D01*
X221120217Y-102288097D01*
X221231701Y-102399581D01*
X221231707Y-102399586D01*
X221231711Y-102399589D01*
X221362814Y-102487190D01*
X221362827Y-102487197D01*
X221508498Y-102547535D01*
X221508503Y-102547537D01*
X221663153Y-102578299D01*
X221663156Y-102578300D01*
X221663158Y-102578300D01*
X221820844Y-102578300D01*
X221820845Y-102578299D01*
X221975497Y-102547537D01*
X222121179Y-102487194D01*
X222252289Y-102399589D01*
X222363789Y-102288089D01*
X222451394Y-102156979D01*
X222452464Y-102154397D01*
X222456387Y-102144925D01*
X222475016Y-102099951D01*
X222475023Y-102099931D01*
X222475043Y-102099885D01*
X222511737Y-102011297D01*
X222542500Y-101856642D01*
X222542500Y-101698958D01*
X222542500Y-101698955D01*
X222542500Y-101698771D01*
X222542064Y-101696766D01*
X222531948Y-101645910D01*
X222511738Y-101544310D01*
X222511737Y-101544303D01*
X222511735Y-101544298D01*
X222451397Y-101398627D01*
X222451390Y-101398614D01*
X222363789Y-101267511D01*
X222363786Y-101267507D01*
X222363781Y-101267501D01*
X222252297Y-101156017D01*
X222252291Y-101156012D01*
X222252290Y-101156011D01*
X222121191Y-101068413D01*
X222121190Y-101068412D01*
X222121185Y-101068409D01*
X222121172Y-101068402D01*
X222121165Y-101068398D01*
X221975502Y-101008064D01*
X221975471Y-101008057D01*
X221820847Y-100977300D01*
X221820845Y-100977300D01*
X221820842Y-100977300D01*
X221663158Y-100977300D01*
X221663155Y-100977300D01*
X221663153Y-100977300D01*
X221508527Y-101008057D01*
X221508511Y-101008060D01*
X221508510Y-101008061D01*
X221508498Y-101008064D01*
X221433249Y-101039233D01*
X221392243Y-101056218D01*
X221358049Y-101064945D01*
X221342510Y-101066616D01*
X221273750Y-101054212D01*
X221267181Y-101050924D01*
X221219581Y-101008930D01*
X221219002Y-101008064D01*
X221169992Y-100934715D01*
X221169986Y-100934707D01*
X221169981Y-100934701D01*
X221058497Y-100823217D01*
X221058491Y-100823212D01*
X221058490Y-100823211D01*
X220927391Y-100735613D01*
X220927390Y-100735612D01*
X220927385Y-100735609D01*
X220927372Y-100735602D01*
X220927365Y-100735598D01*
X220781702Y-100675264D01*
X220781671Y-100675257D01*
X220627047Y-100644500D01*
X220627045Y-100644500D01*
X220627042Y-100644500D01*
X220469358Y-100644500D01*
X220469355Y-100644500D01*
X220469353Y-100644500D01*
X220314727Y-100675257D01*
X220314696Y-100675264D01*
X220169033Y-100735598D01*
X220169024Y-100735603D01*
X220169007Y-100735613D01*
X220037908Y-100823211D01*
X220037907Y-100823212D01*
X220037901Y-100823217D01*
X219926417Y-100934701D01*
X219926412Y-100934707D01*
X219926411Y-100934708D01*
X219838813Y-101065807D01*
X219838803Y-101065824D01*
X219838798Y-101065833D01*
X219778464Y-101211496D01*
X219778457Y-101211527D01*
X219747700Y-101366150D01*
X219747700Y-101366153D01*
X219747700Y-101523846D01*
X219747700Y-101523848D01*
X219747699Y-101523848D01*
X216644581Y-101523848D01*
X216634797Y-101500227D01*
X216634795Y-101500223D01*
X216634794Y-101500221D01*
X216586852Y-101428471D01*
X216586807Y-101428402D01*
X216566908Y-101398622D01*
X216566905Y-101398618D01*
X216547192Y-101369114D01*
X216547191Y-101369113D01*
X216547189Y-101369110D01*
X216435692Y-101257613D01*
X216435691Y-101257612D01*
X216435690Y-101257611D01*
X216304591Y-101170013D01*
X216304590Y-101170012D01*
X216304585Y-101170009D01*
X216304572Y-101170002D01*
X216304565Y-101169998D01*
X216158902Y-101109664D01*
X216158871Y-101109657D01*
X216004247Y-101078900D01*
X216004245Y-101078900D01*
X216004242Y-101078900D01*
X215846558Y-101078900D01*
X215846555Y-101078900D01*
X215846553Y-101078900D01*
X215691927Y-101109657D01*
X215691896Y-101109664D01*
X215546233Y-101169998D01*
X215546224Y-101170003D01*
X215546207Y-101170013D01*
X215415108Y-101257611D01*
X215415107Y-101257612D01*
X215415101Y-101257617D01*
X215303617Y-101369101D01*
X215303612Y-101369107D01*
X215303611Y-101369108D01*
X215216013Y-101500207D01*
X215216003Y-101500224D01*
X215215998Y-101500233D01*
X215155664Y-101645896D01*
X215155661Y-101645910D01*
X215124900Y-101800550D01*
X215124900Y-101800553D01*
X215124900Y-101958246D01*
X215124900Y-101958248D01*
X215124899Y-101958248D01*
X215155657Y-102112871D01*
X215155664Y-102112902D01*
X215215998Y-102258566D01*
X215216000Y-102258570D01*
X215216018Y-102258599D01*
X215219386Y-102263639D01*
X215234620Y-102295480D01*
X215238767Y-102308725D01*
X215240013Y-102378584D01*
X215203296Y-102438023D01*
X215194772Y-102445680D01*
X215168338Y-102463029D01*
X215168583Y-102463451D01*
X215167123Y-102464298D01*
X215167186Y-102464423D01*
X215165216Y-102465407D01*
X215034108Y-102553011D01*
X215034107Y-102553012D01*
X215034101Y-102553017D01*
X214922617Y-102664501D01*
X214922612Y-102664507D01*
X214922611Y-102664508D01*
X214835013Y-102795607D01*
X214835003Y-102795624D01*
X214834998Y-102795633D01*
X214774664Y-102941296D01*
X214774657Y-102941327D01*
X214743900Y-103095950D01*
X214743900Y-103095953D01*
X214743900Y-103253646D01*
X214743900Y-103253648D01*
X214743899Y-103253648D01*
X204630943Y-103253648D01*
X204643814Y-103080661D01*
X204674775Y-102664511D01*
X204688551Y-102479360D01*
X204750000Y-100000002D01*
X204688550Y-97520645D01*
X204505334Y-95058115D01*
X204505333Y-95058108D01*
X204505332Y-95058094D01*
X204266118Y-93132313D01*
X204202047Y-92616512D01*
X204201916Y-92615764D01*
X204171616Y-92442110D01*
X204152895Y-92334818D01*
X218247000Y-92334818D01*
X218247000Y-92555181D01*
X218248453Y-92564355D01*
X218281473Y-92772836D01*
X218349565Y-92982407D01*
X218349566Y-92982410D01*
X218449610Y-93178754D01*
X218449611Y-93178756D01*
X218491878Y-93236934D01*
X218495932Y-93242513D01*
X218929924Y-92808520D01*
X218991245Y-92775037D01*
X219060936Y-92780021D01*
X219116870Y-92821892D01*
X219120691Y-92827292D01*
X219142112Y-92859351D01*
X219142116Y-92859355D01*
X219142116Y-92859356D01*
X219232646Y-92949886D01*
X219264684Y-92971293D01*
X219309489Y-93024906D01*
X219318196Y-93094231D01*
X219288041Y-93157258D01*
X219283474Y-93162076D01*
X218849485Y-93596064D01*
X218849484Y-93596065D01*
X218849485Y-93596066D01*
X218913243Y-93642388D01*
X219011416Y-93692410D01*
X219109588Y-93742432D01*
X219109591Y-93742433D01*
X219214376Y-93776479D01*
X219319164Y-93810526D01*
X219536819Y-93845000D01*
X219757180Y-93845000D01*
X219757181Y-93845000D01*
X219974835Y-93810526D01*
X220184410Y-93742432D01*
X220380760Y-93642386D01*
X220411918Y-93619747D01*
X220438656Y-93610207D01*
X220444514Y-93596065D01*
X220010524Y-93162076D01*
X219977039Y-93100753D01*
X219982023Y-93031062D01*
X220023894Y-92975128D01*
X220029270Y-92971323D01*
X220061351Y-92949888D01*
X220151888Y-92859351D01*
X220173295Y-92827312D01*
X220226903Y-92782510D01*
X220296227Y-92773801D01*
X220359256Y-92803955D01*
X220364076Y-92808524D01*
X220798065Y-93242514D01*
X220798065Y-93242513D01*
X220798066Y-93242514D01*
X220798066Y-93242513D01*
X220811534Y-93236934D01*
X220817751Y-93215764D01*
X220821749Y-93209916D01*
X220844386Y-93178760D01*
X220944432Y-92982410D01*
X220967801Y-92910489D01*
X221012526Y-92772835D01*
X221047000Y-92555181D01*
X221047000Y-92334818D01*
X221012526Y-92117164D01*
X220978479Y-92012376D01*
X220944433Y-91907591D01*
X220944432Y-91907588D01*
X220882602Y-91786241D01*
X220882601Y-91786239D01*
X220856400Y-91734818D01*
X223147000Y-91734818D01*
X223147000Y-91955181D01*
X223158953Y-92030648D01*
X223181473Y-92172836D01*
X223249565Y-92382407D01*
X223249566Y-92382410D01*
X223349610Y-92578754D01*
X223349611Y-92578756D01*
X223391878Y-92636934D01*
X223395932Y-92642513D01*
X223829924Y-92208520D01*
X223891245Y-92175037D01*
X223960936Y-92180021D01*
X224016870Y-92221892D01*
X224020691Y-92227292D01*
X224042112Y-92259351D01*
X224042116Y-92259355D01*
X224042116Y-92259356D01*
X224132646Y-92349886D01*
X224164684Y-92371293D01*
X224209489Y-92424906D01*
X224218196Y-92494231D01*
X224188041Y-92557258D01*
X224183474Y-92562076D01*
X223749485Y-92996064D01*
X223749484Y-92996065D01*
X223749485Y-92996066D01*
X223813243Y-93042388D01*
X223901799Y-93087510D01*
X224009588Y-93142432D01*
X224009591Y-93142433D01*
X224077062Y-93164355D01*
X224219164Y-93210526D01*
X224436819Y-93245000D01*
X224657180Y-93245000D01*
X224657181Y-93245000D01*
X224874835Y-93210526D01*
X225084410Y-93142432D01*
X225280760Y-93042386D01*
X225311918Y-93019747D01*
X225338656Y-93010207D01*
X225344514Y-92996065D01*
X224910524Y-92562076D01*
X224877039Y-92500753D01*
X224882023Y-92431062D01*
X224923894Y-92375128D01*
X224929270Y-92371323D01*
X224961351Y-92349888D01*
X225051888Y-92259351D01*
X225073295Y-92227312D01*
X225126903Y-92182510D01*
X225196227Y-92173801D01*
X225259256Y-92203955D01*
X225264076Y-92208524D01*
X225698065Y-92642514D01*
X225698065Y-92642513D01*
X225698066Y-92642514D01*
X225698066Y-92642513D01*
X225711534Y-92636934D01*
X225717751Y-92615764D01*
X225721749Y-92609916D01*
X225744386Y-92578760D01*
X225844432Y-92382410D01*
X225912526Y-92172835D01*
X225947000Y-91955181D01*
X225947000Y-91734818D01*
X225912526Y-91517164D01*
X225869413Y-91384473D01*
X225844433Y-91307591D01*
X225844432Y-91307588D01*
X225762896Y-91147567D01*
X225744388Y-91111243D01*
X225698066Y-91047485D01*
X225698064Y-91047485D01*
X225264076Y-91481474D01*
X225202753Y-91514959D01*
X225133061Y-91509975D01*
X225077128Y-91468103D01*
X225073293Y-91462684D01*
X225051886Y-91430646D01*
X224961356Y-91340116D01*
X224961352Y-91340113D01*
X224961351Y-91340112D01*
X224929310Y-91318703D01*
X224884507Y-91265091D01*
X224875800Y-91195766D01*
X224905955Y-91132739D01*
X224910499Y-91127944D01*
X225344513Y-90693932D01*
X225280756Y-90647611D01*
X225277082Y-90645739D01*
X225084410Y-90547566D01*
X225084407Y-90547565D01*
X224874836Y-90479473D01*
X224766008Y-90462236D01*
X224657181Y-90445000D01*
X224657180Y-90445000D01*
X224436814Y-90445000D01*
X224219162Y-90479473D01*
X224009591Y-90547565D01*
X224009588Y-90547566D01*
X223813234Y-90647615D01*
X223813230Y-90647617D01*
X223749485Y-90693931D01*
X223749485Y-90693932D01*
X224183475Y-91127922D01*
X224216960Y-91189245D01*
X224211976Y-91258937D01*
X224170104Y-91314870D01*
X224164688Y-91318703D01*
X224132648Y-91340112D01*
X224132643Y-91340116D01*
X224042116Y-91430643D01*
X224042112Y-91430648D01*
X224020703Y-91462688D01*
X223967090Y-91507491D01*
X223897764Y-91516197D01*
X223834738Y-91486040D01*
X223829922Y-91481475D01*
X223395932Y-91047485D01*
X223395931Y-91047485D01*
X223349617Y-91111230D01*
X223349615Y-91111234D01*
X223249566Y-91307588D01*
X223249565Y-91307591D01*
X223181473Y-91517162D01*
X223168747Y-91597510D01*
X223147000Y-91734818D01*
X220856400Y-91734818D01*
X220855341Y-91732739D01*
X220844388Y-91711243D01*
X220798066Y-91647485D01*
X220798064Y-91647485D01*
X220364076Y-92081474D01*
X220302753Y-92114959D01*
X220233061Y-92109975D01*
X220177128Y-92068103D01*
X220173293Y-92062684D01*
X220151886Y-92030646D01*
X220061356Y-91940116D01*
X220061352Y-91940113D01*
X220061351Y-91940112D01*
X220029310Y-91918703D01*
X219984507Y-91865091D01*
X219975800Y-91795766D01*
X220005955Y-91732739D01*
X220010499Y-91727944D01*
X220444513Y-91293932D01*
X220380756Y-91247611D01*
X220373585Y-91243957D01*
X220184410Y-91147566D01*
X220184407Y-91147565D01*
X219974836Y-91079473D01*
X219866008Y-91062236D01*
X219757181Y-91045000D01*
X219757180Y-91045000D01*
X219536814Y-91045000D01*
X219319162Y-91079473D01*
X219109591Y-91147565D01*
X219109588Y-91147566D01*
X218913234Y-91247615D01*
X218913230Y-91247617D01*
X218849484Y-91293931D01*
X219283475Y-91727922D01*
X219316960Y-91789245D01*
X219311976Y-91858937D01*
X219270104Y-91914870D01*
X219264688Y-91918703D01*
X219232648Y-91940112D01*
X219232643Y-91940116D01*
X219142116Y-92030643D01*
X219142112Y-92030648D01*
X219120703Y-92062688D01*
X219067090Y-92107491D01*
X218997764Y-92116197D01*
X218934738Y-92086040D01*
X218929922Y-92081475D01*
X218495932Y-91647485D01*
X218495931Y-91647485D01*
X218449617Y-91711230D01*
X218449615Y-91711234D01*
X218349566Y-91907588D01*
X218349565Y-91907591D01*
X218281473Y-92117162D01*
X218261208Y-92245112D01*
X218247000Y-92334818D01*
X204152895Y-92334818D01*
X203780388Y-90199933D01*
X203242054Y-87812477D01*
X202588742Y-85458242D01*
X201822151Y-83141327D01*
X201822145Y-83141313D01*
X201822142Y-83141302D01*
X200943985Y-80865846D01*
X200943983Y-80865842D01*
X200943978Y-80865829D01*
X199955921Y-78635846D01*
X198859676Y-76455477D01*
X198859663Y-76455454D01*
X198859658Y-76455444D01*
X198859652Y-76455433D01*
X197656955Y-74328844D01*
X197656933Y-74328807D01*
X196349419Y-72259982D01*
X196349415Y-72259975D01*
X194938794Y-70253037D01*
X193426776Y-68312106D01*
X191815058Y-66441280D01*
X190105339Y-64644657D01*
X190105338Y-64644657D01*
X155004730Y-99745270D01*
X154943407Y-99778755D01*
X154917049Y-99781589D01*
X150342412Y-99781589D01*
X150275373Y-99761904D01*
X150229618Y-99709100D01*
X150218412Y-99657589D01*
X150218412Y-95051361D01*
X150238097Y-94984322D01*
X150254731Y-94963680D01*
X155018499Y-90199912D01*
X185355343Y-59863071D01*
X183558720Y-58153352D01*
X183558705Y-58153339D01*
X181687905Y-56541643D01*
X179746978Y-55029628D01*
X179746977Y-55029627D01*
X179746964Y-55029617D01*
X177740027Y-53618996D01*
X177656233Y-53566037D01*
X175671210Y-52311486D01*
X175671158Y-52311455D01*
X173544567Y-51108758D01*
X173544556Y-51108752D01*
X173544538Y-51108743D01*
X173544524Y-51108735D01*
X171364156Y-50012490D01*
X169134174Y-49024432D01*
X169134170Y-49024430D01*
X169134160Y-49024426D01*
X169134156Y-49024424D01*
X166858700Y-48146267D01*
X166858670Y-48146257D01*
X164541760Y-47379668D01*
X162187525Y-46726357D01*
X161548846Y-46582345D01*
X159800089Y-46188027D01*
X159800074Y-46188024D01*
X159800069Y-46188023D01*
X159800057Y-46188020D01*
X159800026Y-46188015D01*
X157383531Y-45766370D01*
X157383495Y-45766364D01*
X157383491Y-45766364D01*
X157383485Y-45766363D01*
X157383456Y-45766359D01*
X154941908Y-45463078D01*
X154941871Y-45463075D01*
X152479374Y-45279860D01*
X152479350Y-45279859D01*
X150074347Y-45220252D01*
X150000000Y-45218410D01*
X149999999Y-45218410D01*
X147520655Y-45279858D01*
X147520624Y-45279860D01*
X145058129Y-45463074D01*
X145058092Y-45463077D01*
X142616544Y-45766357D01*
X142616469Y-45766368D01*
X140199973Y-46188013D01*
X140199910Y-46188025D01*
X137812497Y-46726350D01*
X137812475Y-46726355D01*
X135458239Y-47379666D01*
X134212268Y-47791916D01*
X133141298Y-48146265D01*
X130865842Y-49024423D01*
X130865838Y-49024425D01*
X128635850Y-50012485D01*
X128635842Y-50012488D01*
X128635842Y-50012489D01*
X126455473Y-51108734D01*
X126455466Y-51108737D01*
X126455440Y-51108751D01*
X126455429Y-51108757D01*
X124328838Y-52311454D01*
X124328786Y-52311485D01*
X122259977Y-53618990D01*
X121961278Y-53828937D01*
X120253032Y-55029616D01*
X120253031Y-55029617D01*
X120253017Y-55029627D01*
X118312090Y-56541643D01*
X116441278Y-58153348D01*
X114644653Y-59863071D01*
X147269098Y-92487510D01*
X149745270Y-94963681D01*
X149778755Y-95025004D01*
X149781589Y-95051362D01*
X149781589Y-99657589D01*
X149761904Y-99724628D01*
X149709100Y-99770383D01*
X149657589Y-99781589D01*
X145082951Y-99781589D01*
X145015912Y-99761904D01*
X144995270Y-99745270D01*
X109894661Y-64644657D01*
X108184929Y-66441294D01*
X106573232Y-68312095D01*
X105061217Y-70253022D01*
X103650580Y-72259982D01*
X102343066Y-74328807D01*
X102343044Y-74328844D01*
X101140347Y-76455433D01*
X101140341Y-76455444D01*
X100044075Y-78635854D01*
X99056016Y-80865842D01*
X99056014Y-80865846D01*
X98177857Y-83141302D01*
X98177849Y-83141327D01*
X97411258Y-85458242D01*
X96757946Y-87812477D01*
X96757941Y-87812497D01*
X96757941Y-87812499D01*
X96219616Y-90199912D01*
X96219604Y-90199975D01*
X95797959Y-92616471D01*
X95797948Y-92616546D01*
X95494667Y-95058094D01*
X95494664Y-95058131D01*
X95311451Y-97520626D01*
X95311449Y-97520657D01*
X95250000Y-100000002D01*
X86100719Y-100000002D01*
X86121011Y-99951013D01*
X86123486Y-99945035D01*
X86130337Y-99928497D01*
X86161100Y-99773842D01*
X86161100Y-99616158D01*
X86161100Y-99616155D01*
X86161100Y-99615973D01*
X86160665Y-99613972D01*
X86152046Y-99570642D01*
X86130995Y-99464815D01*
X86130583Y-99462403D01*
X86130337Y-99461504D01*
X86110227Y-99412952D01*
X86070002Y-99315840D01*
X86069999Y-99315833D01*
X86069997Y-99315827D01*
X86069990Y-99315814D01*
X85982389Y-99184711D01*
X85982386Y-99184707D01*
X85982381Y-99184701D01*
X85870897Y-99073217D01*
X85870891Y-99073212D01*
X85870890Y-99073211D01*
X85739791Y-98985613D01*
X85739786Y-98985610D01*
X85739785Y-98985609D01*
X85739772Y-98985602D01*
X85739765Y-98985598D01*
X85594102Y-98925264D01*
X85594071Y-98925257D01*
X85439447Y-98894500D01*
X85439445Y-98894500D01*
X85439442Y-98894500D01*
X85281758Y-98894500D01*
X85281755Y-98894500D01*
X85281753Y-98894500D01*
X85127127Y-98925257D01*
X85127096Y-98925264D01*
X84981433Y-98985598D01*
X84981424Y-98985603D01*
X84981412Y-98985610D01*
X84894313Y-99043808D01*
X84862473Y-99059041D01*
X84847554Y-99063712D01*
X84777703Y-99064959D01*
X84764575Y-99061358D01*
X84728485Y-99044877D01*
X84639791Y-98985613D01*
X84639786Y-98985610D01*
X84639785Y-98985609D01*
X84639772Y-98985602D01*
X84639765Y-98985598D01*
X84494102Y-98925264D01*
X84494071Y-98925257D01*
X84339447Y-98894500D01*
X84339445Y-98894500D01*
X84339442Y-98894500D01*
X84181758Y-98894500D01*
X84181755Y-98894500D01*
X84181753Y-98894500D01*
X84027127Y-98925257D01*
X84027096Y-98925264D01*
X83881433Y-98985598D01*
X83881424Y-98985603D01*
X83881407Y-98985613D01*
X83750308Y-99073211D01*
X83750307Y-99073212D01*
X83750301Y-99073217D01*
X83638817Y-99184701D01*
X83638812Y-99184707D01*
X83638811Y-99184708D01*
X83551213Y-99315807D01*
X83551206Y-99315820D01*
X83551198Y-99315833D01*
X83490864Y-99461496D01*
X83490857Y-99461527D01*
X83460100Y-99616150D01*
X83460100Y-99616153D01*
X83460100Y-99773846D01*
X83460100Y-99773848D01*
X83460099Y-99773848D01*
X81411227Y-99773848D01*
X81431337Y-99725297D01*
X81436462Y-99699530D01*
X81459071Y-99585874D01*
X81462100Y-99570642D01*
X81462100Y-99412955D01*
X81462100Y-99412778D01*
X81461682Y-99410860D01*
X81442778Y-99315821D01*
X81431337Y-99258303D01*
X81431335Y-99258298D01*
X81370997Y-99112627D01*
X81370990Y-99112614D01*
X81283389Y-98981511D01*
X81283386Y-98981507D01*
X81283381Y-98981501D01*
X81171897Y-98870017D01*
X81171891Y-98870012D01*
X81171890Y-98870011D01*
X81040791Y-98782413D01*
X81040786Y-98782410D01*
X81040785Y-98782409D01*
X81040772Y-98782402D01*
X81040765Y-98782398D01*
X80895102Y-98722064D01*
X80895071Y-98722057D01*
X80740447Y-98691300D01*
X80740445Y-98691300D01*
X80740442Y-98691300D01*
X80582758Y-98691300D01*
X80582755Y-98691300D01*
X80582753Y-98691300D01*
X80428127Y-98722057D01*
X80428096Y-98722064D01*
X80282433Y-98782398D01*
X80282424Y-98782403D01*
X80282412Y-98782410D01*
X80195313Y-98840608D01*
X80163473Y-98855841D01*
X80148554Y-98860512D01*
X80078703Y-98861759D01*
X80065575Y-98858158D01*
X80029485Y-98841677D01*
X79940791Y-98782413D01*
X79940786Y-98782410D01*
X79940785Y-98782409D01*
X79940772Y-98782402D01*
X79940765Y-98782398D01*
X79795102Y-98722064D01*
X79795071Y-98722057D01*
X79640447Y-98691300D01*
X79640445Y-98691300D01*
X79640442Y-98691300D01*
X79482758Y-98691300D01*
X79482755Y-98691300D01*
X79482753Y-98691300D01*
X79328127Y-98722057D01*
X79328096Y-98722064D01*
X79182433Y-98782398D01*
X79182424Y-98782403D01*
X79182407Y-98782413D01*
X79051308Y-98870011D01*
X79051307Y-98870012D01*
X79051301Y-98870017D01*
X78939817Y-98981501D01*
X78939812Y-98981507D01*
X78939811Y-98981508D01*
X78852213Y-99112607D01*
X78852203Y-99112624D01*
X78852198Y-99112633D01*
X78791864Y-99258296D01*
X78791857Y-99258327D01*
X78761100Y-99412950D01*
X78761100Y-99412952D01*
X78761100Y-99412953D01*
X78761100Y-99570646D01*
X78761100Y-99570648D01*
X78761099Y-99570648D01*
X51351300Y-99570648D01*
X51351300Y-97183048D01*
X67754099Y-97183048D01*
X67784857Y-97337671D01*
X67784864Y-97337702D01*
X67845198Y-97483365D01*
X67845203Y-97483374D01*
X67845213Y-97483391D01*
X67932811Y-97614490D01*
X67932812Y-97614491D01*
X67932817Y-97614497D01*
X68044301Y-97725981D01*
X68044307Y-97725986D01*
X68044311Y-97725989D01*
X68175414Y-97813590D01*
X68175427Y-97813597D01*
X68321098Y-97873935D01*
X68321103Y-97873937D01*
X68429467Y-97895492D01*
X68441502Y-97897886D01*
X68468112Y-97903179D01*
X68470847Y-97903903D01*
X68475755Y-97904700D01*
X68633444Y-97904700D01*
X68637564Y-97904700D01*
X68645414Y-97902318D01*
X68788097Y-97873937D01*
X68933779Y-97813594D01*
X69041154Y-97741848D01*
X69811499Y-97741848D01*
X69842257Y-97896471D01*
X69842264Y-97896502D01*
X69902598Y-98042165D01*
X69902603Y-98042174D01*
X69902613Y-98042191D01*
X69990211Y-98173290D01*
X69990212Y-98173291D01*
X69990217Y-98173297D01*
X70101701Y-98284781D01*
X70101707Y-98284786D01*
X70101711Y-98284789D01*
X70232814Y-98372390D01*
X70232827Y-98372397D01*
X70378498Y-98432735D01*
X70378503Y-98432737D01*
X70533153Y-98463499D01*
X70533156Y-98463500D01*
X70533158Y-98463500D01*
X70690844Y-98463500D01*
X70690845Y-98463499D01*
X70845497Y-98432737D01*
X70991179Y-98372394D01*
X71122289Y-98284789D01*
X71233789Y-98173289D01*
X71321394Y-98042179D01*
X71340585Y-97995848D01*
X73189699Y-97995848D01*
X73220457Y-98150471D01*
X73220464Y-98150502D01*
X73280798Y-98296165D01*
X73280803Y-98296174D01*
X73280813Y-98296191D01*
X73368411Y-98427290D01*
X73368412Y-98427291D01*
X73368417Y-98427297D01*
X73479901Y-98538781D01*
X73479907Y-98538786D01*
X73479911Y-98538789D01*
X73611014Y-98626390D01*
X73611027Y-98626397D01*
X73756698Y-98686735D01*
X73756703Y-98686737D01*
X73911353Y-98717499D01*
X73911356Y-98717500D01*
X73911358Y-98717500D01*
X74069044Y-98717500D01*
X74069045Y-98717499D01*
X74223697Y-98686737D01*
X74369379Y-98626394D01*
X74500489Y-98538789D01*
X74611989Y-98427289D01*
X74699594Y-98296179D01*
X74759937Y-98150497D01*
X74790700Y-97995842D01*
X74790700Y-97838158D01*
X74790700Y-97838155D01*
X74790700Y-97837973D01*
X74790265Y-97835971D01*
X74776524Y-97766891D01*
X74768388Y-97725989D01*
X74759937Y-97683503D01*
X74740177Y-97635797D01*
X74699597Y-97537827D01*
X74699590Y-97537814D01*
X74611989Y-97406711D01*
X74611986Y-97406707D01*
X74611981Y-97406701D01*
X74540728Y-97335448D01*
X75027299Y-97335448D01*
X75058057Y-97490071D01*
X75058064Y-97490102D01*
X75118398Y-97635765D01*
X75118403Y-97635774D01*
X75118413Y-97635791D01*
X75206011Y-97766890D01*
X75206012Y-97766891D01*
X75206017Y-97766897D01*
X75317501Y-97878381D01*
X75317507Y-97878386D01*
X75317511Y-97878389D01*
X75448614Y-97965990D01*
X75448627Y-97965997D01*
X75594298Y-98026335D01*
X75594303Y-98026337D01*
X75748953Y-98057099D01*
X75748956Y-98057100D01*
X75748958Y-98057100D01*
X75906644Y-98057100D01*
X75906645Y-98057099D01*
X76061297Y-98026337D01*
X76206979Y-97965994D01*
X76294093Y-97907784D01*
X76325921Y-97892557D01*
X76340846Y-97887884D01*
X76410694Y-97886639D01*
X76423830Y-97890242D01*
X76459913Y-97906721D01*
X76548619Y-97965993D01*
X76548620Y-97965993D01*
X76548621Y-97965994D01*
X76548623Y-97965995D01*
X76548627Y-97965997D01*
X76694298Y-98026335D01*
X76694303Y-98026337D01*
X76848953Y-98057099D01*
X76848956Y-98057100D01*
X76848958Y-98057100D01*
X77006644Y-98057100D01*
X77006645Y-98057099D01*
X77161297Y-98026337D01*
X77306979Y-97965994D01*
X77438089Y-97878389D01*
X77480507Y-97835971D01*
X77549588Y-97766891D01*
X77549589Y-97766889D01*
X77637194Y-97635779D01*
X77697537Y-97490097D01*
X77728300Y-97335442D01*
X77728300Y-97177758D01*
X77728300Y-97177755D01*
X77728300Y-97177571D01*
X77727864Y-97175566D01*
X77701139Y-97041210D01*
X77701138Y-97041208D01*
X77697537Y-97023103D01*
X77690394Y-97005859D01*
X77637197Y-96877427D01*
X77637190Y-96877414D01*
X77549589Y-96746311D01*
X77549587Y-96746308D01*
X77549586Y-96746307D01*
X77549581Y-96746301D01*
X77438097Y-96634817D01*
X77438091Y-96634812D01*
X77438090Y-96634811D01*
X77306991Y-96547213D01*
X77306986Y-96547210D01*
X77306985Y-96547209D01*
X77306972Y-96547202D01*
X77306965Y-96547198D01*
X77161302Y-96486864D01*
X77161271Y-96486857D01*
X77006647Y-96456100D01*
X77006645Y-96456100D01*
X77006642Y-96456100D01*
X76848958Y-96456100D01*
X76848955Y-96456100D01*
X76848953Y-96456100D01*
X76694327Y-96486857D01*
X76694296Y-96486864D01*
X76548633Y-96547198D01*
X76548624Y-96547203D01*
X76548612Y-96547210D01*
X76461513Y-96605408D01*
X76429673Y-96620641D01*
X76414754Y-96625312D01*
X76344903Y-96626559D01*
X76331775Y-96622958D01*
X76295685Y-96606477D01*
X76206991Y-96547213D01*
X76206986Y-96547210D01*
X76206985Y-96547209D01*
X76206972Y-96547202D01*
X76206965Y-96547198D01*
X76061302Y-96486864D01*
X76061271Y-96486857D01*
X75906647Y-96456100D01*
X75906645Y-96456100D01*
X75906642Y-96456100D01*
X75748958Y-96456100D01*
X75748955Y-96456100D01*
X75748953Y-96456100D01*
X75594327Y-96486857D01*
X75594296Y-96486864D01*
X75448633Y-96547198D01*
X75448624Y-96547203D01*
X75448607Y-96547213D01*
X75317508Y-96634811D01*
X75317507Y-96634812D01*
X75317501Y-96634817D01*
X75206017Y-96746301D01*
X75206012Y-96746307D01*
X75206011Y-96746308D01*
X75118413Y-96877407D01*
X75118403Y-96877424D01*
X75118398Y-96877433D01*
X75058064Y-97023096D01*
X75058057Y-97023127D01*
X75027300Y-97177750D01*
X75027300Y-97177753D01*
X75027300Y-97335446D01*
X75027300Y-97335448D01*
X75027299Y-97335448D01*
X74540728Y-97335448D01*
X74500494Y-97295214D01*
X74474964Y-97278156D01*
X74473163Y-97276952D01*
X74469874Y-97274754D01*
X74469872Y-97274751D01*
X74369401Y-97207619D01*
X74369391Y-97207613D01*
X74369385Y-97207609D01*
X74369372Y-97207602D01*
X74369365Y-97207598D01*
X74223702Y-97147264D01*
X74223671Y-97147257D01*
X74069047Y-97116500D01*
X74069045Y-97116500D01*
X74069042Y-97116500D01*
X73911358Y-97116500D01*
X73911355Y-97116500D01*
X73911353Y-97116500D01*
X73756727Y-97147257D01*
X73756696Y-97147264D01*
X73611033Y-97207598D01*
X73611024Y-97207603D01*
X73611007Y-97207613D01*
X73479908Y-97295211D01*
X73479907Y-97295212D01*
X73479901Y-97295217D01*
X73368417Y-97406701D01*
X73368412Y-97406707D01*
X73368411Y-97406708D01*
X73280813Y-97537807D01*
X73280803Y-97537824D01*
X73280798Y-97537833D01*
X73220464Y-97683496D01*
X73220457Y-97683527D01*
X73189700Y-97838150D01*
X73189700Y-97838153D01*
X73189700Y-97995846D01*
X73189700Y-97995848D01*
X73189699Y-97995848D01*
X71340585Y-97995848D01*
X71381737Y-97896497D01*
X71412500Y-97741842D01*
X71412500Y-97601370D01*
X71417521Y-97566443D01*
X71420707Y-97555590D01*
X71458477Y-97496809D01*
X71522031Y-97467780D01*
X71591186Y-97477718D01*
X71598172Y-97480908D01*
X71634343Y-97506022D01*
X71676502Y-97548182D01*
X71676507Y-97548186D01*
X71676511Y-97548189D01*
X71807614Y-97635790D01*
X71807627Y-97635797D01*
X71922818Y-97683510D01*
X71953303Y-97696137D01*
X72102921Y-97725898D01*
X72105194Y-97726452D01*
X72107955Y-97726900D01*
X72265644Y-97726900D01*
X72265646Y-97726900D01*
X72265647Y-97726899D01*
X72283024Y-97723442D01*
X72348377Y-97710444D01*
X72386375Y-97702884D01*
X72420297Y-97696137D01*
X72548902Y-97642867D01*
X72565972Y-97635797D01*
X72565972Y-97635796D01*
X72565979Y-97635794D01*
X72697089Y-97548189D01*
X72808589Y-97436689D01*
X72896194Y-97305579D01*
X72956537Y-97159897D01*
X72987300Y-97005242D01*
X72987300Y-96847558D01*
X72987300Y-96847555D01*
X72987300Y-96847374D01*
X72986875Y-96845426D01*
X72983228Y-96827088D01*
X72956537Y-96692903D01*
X72956535Y-96692898D01*
X72896197Y-96547227D01*
X72896190Y-96547214D01*
X72808589Y-96416111D01*
X72808586Y-96416107D01*
X72808581Y-96416101D01*
X72697097Y-96304617D01*
X72697091Y-96304612D01*
X72697090Y-96304611D01*
X72565991Y-96217013D01*
X72565990Y-96217012D01*
X72565985Y-96217009D01*
X72565972Y-96217002D01*
X72565964Y-96216998D01*
X72420302Y-96156664D01*
X72420271Y-96156657D01*
X72265647Y-96125900D01*
X72265645Y-96125900D01*
X72265642Y-96125900D01*
X72107958Y-96125900D01*
X72107955Y-96125900D01*
X72107953Y-96125900D01*
X71953327Y-96156657D01*
X71953296Y-96156664D01*
X71807635Y-96216998D01*
X71807634Y-96216998D01*
X71807624Y-96217003D01*
X71807607Y-96217013D01*
X71676508Y-96304611D01*
X71676507Y-96304612D01*
X71676501Y-96304617D01*
X71565017Y-96416101D01*
X71565012Y-96416107D01*
X71565011Y-96416108D01*
X71477413Y-96547207D01*
X71477403Y-96547224D01*
X71477398Y-96547233D01*
X71417064Y-96692896D01*
X71417057Y-96692927D01*
X71386300Y-96847550D01*
X71386300Y-96988029D01*
X71381276Y-97022967D01*
X71378089Y-97033820D01*
X71340314Y-97092597D01*
X71276757Y-97121620D01*
X71207607Y-97111679D01*
X71200629Y-97108492D01*
X71164456Y-97083377D01*
X71122296Y-97041216D01*
X71122291Y-97041212D01*
X71122285Y-97041208D01*
X70991191Y-96953613D01*
X70991190Y-96953612D01*
X70991185Y-96953609D01*
X70991172Y-96953602D01*
X70991165Y-96953598D01*
X70845502Y-96893264D01*
X70845471Y-96893257D01*
X70690847Y-96862500D01*
X70690845Y-96862500D01*
X70690842Y-96862500D01*
X70533158Y-96862500D01*
X70533155Y-96862500D01*
X70533153Y-96862500D01*
X70378527Y-96893257D01*
X70378496Y-96893264D01*
X70232833Y-96953598D01*
X70232824Y-96953603D01*
X70232807Y-96953613D01*
X70101714Y-97041208D01*
X70101707Y-97041212D01*
X70101701Y-97041217D01*
X69990217Y-97152701D01*
X69990212Y-97152707D01*
X69990211Y-97152708D01*
X69902613Y-97283807D01*
X69902603Y-97283824D01*
X69902598Y-97283833D01*
X69842264Y-97429496D01*
X69842257Y-97429527D01*
X69811500Y-97584150D01*
X69811500Y-97584153D01*
X69811500Y-97741846D01*
X69811500Y-97741848D01*
X69811499Y-97741848D01*
X69041154Y-97741848D01*
X69064889Y-97725989D01*
X69176389Y-97614489D01*
X69215744Y-97555590D01*
X69246762Y-97509170D01*
X69263991Y-97483383D01*
X69263994Y-97483379D01*
X69266339Y-97477719D01*
X69324335Y-97337701D01*
X69324337Y-97337697D01*
X69355100Y-97183042D01*
X69355100Y-97025358D01*
X69355100Y-97025355D01*
X69355100Y-97025173D01*
X69354665Y-97023171D01*
X69340828Y-96953608D01*
X69324339Y-96870710D01*
X69324337Y-96870705D01*
X69324337Y-96870703D01*
X69272811Y-96746307D01*
X69263997Y-96725027D01*
X69263990Y-96725014D01*
X69176389Y-96593911D01*
X69176386Y-96593907D01*
X69176381Y-96593901D01*
X69064897Y-96482417D01*
X69064891Y-96482412D01*
X69064890Y-96482411D01*
X68933791Y-96394813D01*
X68933790Y-96394812D01*
X68933785Y-96394809D01*
X68933772Y-96394802D01*
X68933765Y-96394798D01*
X68788102Y-96334464D01*
X68788071Y-96334457D01*
X68633447Y-96303700D01*
X68633445Y-96303700D01*
X68633442Y-96303700D01*
X68475758Y-96303700D01*
X68475755Y-96303700D01*
X68475753Y-96303700D01*
X68321127Y-96334457D01*
X68321096Y-96334464D01*
X68175433Y-96394798D01*
X68175424Y-96394803D01*
X68175407Y-96394813D01*
X68044308Y-96482411D01*
X68044307Y-96482412D01*
X68044301Y-96482417D01*
X67932817Y-96593901D01*
X67932812Y-96593907D01*
X67932811Y-96593908D01*
X67845213Y-96725007D01*
X67845203Y-96725024D01*
X67845198Y-96725033D01*
X67784864Y-96870696D01*
X67784857Y-96870727D01*
X67754100Y-97025350D01*
X67754100Y-97025353D01*
X67754100Y-97183046D01*
X67754100Y-97183048D01*
X67754099Y-97183048D01*
X51351300Y-97183048D01*
X51351300Y-96395648D01*
X65518899Y-96395648D01*
X65549657Y-96550271D01*
X65549664Y-96550302D01*
X65609998Y-96695965D01*
X65610003Y-96695974D01*
X65610013Y-96695991D01*
X65697611Y-96827090D01*
X65697612Y-96827091D01*
X65697617Y-96827097D01*
X65809099Y-96938579D01*
X65809107Y-96938586D01*
X65809111Y-96938589D01*
X65940214Y-97026190D01*
X65940227Y-97026197D01*
X66052975Y-97072898D01*
X66085903Y-97086537D01*
X66236536Y-97116500D01*
X66240553Y-97117299D01*
X66240556Y-97117300D01*
X66240558Y-97117300D01*
X66398244Y-97117300D01*
X66398245Y-97117299D01*
X66552897Y-97086537D01*
X66698579Y-97026194D01*
X66829689Y-96938589D01*
X66829692Y-96938586D01*
X66836694Y-96931585D01*
X66888945Y-96879333D01*
X66941187Y-96827092D01*
X66941189Y-96827089D01*
X67028794Y-96695979D01*
X67089137Y-96550297D01*
X67119900Y-96395642D01*
X67119900Y-96237958D01*
X67119900Y-96237955D01*
X67119900Y-96237772D01*
X67119467Y-96235779D01*
X67115733Y-96217004D01*
X67097610Y-96125900D01*
X67089137Y-96083303D01*
X67089135Y-96083298D01*
X67028797Y-95937627D01*
X67028790Y-95937614D01*
X66941189Y-95806511D01*
X66941186Y-95806507D01*
X66941181Y-95806501D01*
X66829697Y-95695017D01*
X66829691Y-95695012D01*
X66829690Y-95695011D01*
X66698591Y-95607413D01*
X66698590Y-95607412D01*
X66698585Y-95607409D01*
X66698572Y-95607402D01*
X66698565Y-95607398D01*
X66552902Y-95547064D01*
X66552871Y-95547057D01*
X66398247Y-95516300D01*
X66398245Y-95516300D01*
X66398242Y-95516300D01*
X66240558Y-95516300D01*
X66240555Y-95516300D01*
X66240553Y-95516300D01*
X66085927Y-95547057D01*
X66085896Y-95547064D01*
X65940233Y-95607398D01*
X65940224Y-95607403D01*
X65940207Y-95607413D01*
X65809108Y-95695011D01*
X65809107Y-95695012D01*
X65809101Y-95695017D01*
X65697617Y-95806501D01*
X65697612Y-95806507D01*
X65697611Y-95806508D01*
X65610013Y-95937607D01*
X65610003Y-95937624D01*
X65609998Y-95937633D01*
X65549664Y-96083296D01*
X65549657Y-96083327D01*
X65518900Y-96237950D01*
X65518900Y-96237953D01*
X65518900Y-96395646D01*
X65518900Y-96395648D01*
X65518899Y-96395648D01*
X51351300Y-96395648D01*
X51351300Y-94770048D01*
X62064499Y-94770048D01*
X62095257Y-94924671D01*
X62095264Y-94924702D01*
X62155598Y-95070365D01*
X62155603Y-95070374D01*
X62155613Y-95070391D01*
X62243211Y-95201490D01*
X62243212Y-95201491D01*
X62243217Y-95201497D01*
X62354701Y-95312981D01*
X62354707Y-95312986D01*
X62354711Y-95312989D01*
X62485814Y-95400590D01*
X62485827Y-95400597D01*
X62631498Y-95460935D01*
X62631503Y-95460937D01*
X62786153Y-95491699D01*
X62786156Y-95491700D01*
X62786158Y-95491700D01*
X62943844Y-95491700D01*
X62943845Y-95491699D01*
X63098497Y-95460937D01*
X63244179Y-95400594D01*
X63375289Y-95312989D01*
X63486789Y-95201489D01*
X63574394Y-95070379D01*
X63634737Y-94924697D01*
X63665500Y-94770042D01*
X63665500Y-94612358D01*
X63665500Y-94612355D01*
X63665500Y-94612173D01*
X63665065Y-94610172D01*
X63635397Y-94461024D01*
X63634994Y-94458667D01*
X63634738Y-94457708D01*
X63634737Y-94457706D01*
X63634737Y-94457703D01*
X63634735Y-94457698D01*
X63574397Y-94312027D01*
X63574390Y-94312014D01*
X63486789Y-94180911D01*
X63486786Y-94180907D01*
X63486781Y-94180901D01*
X63375297Y-94069417D01*
X63375291Y-94069412D01*
X63375290Y-94069411D01*
X63244191Y-93981813D01*
X63244190Y-93981812D01*
X63244185Y-93981809D01*
X63244172Y-93981802D01*
X63244165Y-93981798D01*
X63098502Y-93921464D01*
X63098471Y-93921457D01*
X62943847Y-93890700D01*
X62943845Y-93890700D01*
X62943842Y-93890700D01*
X62786158Y-93890700D01*
X62786155Y-93890700D01*
X62786153Y-93890700D01*
X62631527Y-93921457D01*
X62631496Y-93921464D01*
X62485833Y-93981798D01*
X62485824Y-93981803D01*
X62485807Y-93981813D01*
X62354708Y-94069411D01*
X62354707Y-94069412D01*
X62354701Y-94069417D01*
X62243217Y-94180901D01*
X62243212Y-94180907D01*
X62243211Y-94180908D01*
X62155613Y-94312007D01*
X62155603Y-94312024D01*
X62155598Y-94312033D01*
X62095264Y-94457696D01*
X62095257Y-94457727D01*
X62064500Y-94612350D01*
X62064500Y-94612353D01*
X62064500Y-94770046D01*
X62064500Y-94770048D01*
X62064499Y-94770048D01*
X51351300Y-94770048D01*
X51351300Y-92039818D01*
X53554600Y-92039818D01*
X53554600Y-92260181D01*
X53571627Y-92367684D01*
X53589073Y-92477836D01*
X53657165Y-92687407D01*
X53657166Y-92687410D01*
X53757210Y-92883754D01*
X53757211Y-92883756D01*
X53799478Y-92941934D01*
X53803532Y-92947513D01*
X54237524Y-92513520D01*
X54298845Y-92480037D01*
X54368536Y-92485021D01*
X54424470Y-92526892D01*
X54428291Y-92532292D01*
X54449712Y-92564351D01*
X54449716Y-92564355D01*
X54449716Y-92564356D01*
X54540246Y-92654886D01*
X54572284Y-92676293D01*
X54617089Y-92729906D01*
X54625796Y-92799231D01*
X54595641Y-92862258D01*
X54591074Y-92867076D01*
X54157085Y-93301064D01*
X54157084Y-93301065D01*
X54157085Y-93301066D01*
X54220843Y-93347388D01*
X54319016Y-93397410D01*
X54417188Y-93447432D01*
X54417191Y-93447433D01*
X54521976Y-93481479D01*
X54626764Y-93515526D01*
X54844419Y-93550000D01*
X55064780Y-93550000D01*
X55064781Y-93550000D01*
X55282435Y-93515526D01*
X55492010Y-93447432D01*
X55688360Y-93347386D01*
X55719518Y-93324747D01*
X55746256Y-93315207D01*
X55752114Y-93301065D01*
X55318124Y-92867076D01*
X55284639Y-92805753D01*
X55289623Y-92736062D01*
X55331494Y-92680128D01*
X55336870Y-92676323D01*
X55368951Y-92654888D01*
X55459488Y-92564351D01*
X55480895Y-92532312D01*
X55534503Y-92487510D01*
X55603827Y-92478801D01*
X55666856Y-92508955D01*
X55671676Y-92513524D01*
X56105665Y-92947514D01*
X56105665Y-92947513D01*
X56105666Y-92947514D01*
X56105666Y-92947513D01*
X56119134Y-92941934D01*
X56125351Y-92920764D01*
X56129349Y-92914916D01*
X56151986Y-92883760D01*
X56252032Y-92687410D01*
X56267496Y-92639818D01*
X58454600Y-92639818D01*
X58454600Y-92860180D01*
X58489073Y-93077836D01*
X58557165Y-93287407D01*
X58557166Y-93287410D01*
X58657210Y-93483754D01*
X58657211Y-93483756D01*
X58699478Y-93541934D01*
X58703532Y-93547513D01*
X59137524Y-93113520D01*
X59198845Y-93080037D01*
X59268536Y-93085021D01*
X59324470Y-93126892D01*
X59328291Y-93132292D01*
X59349712Y-93164351D01*
X59349716Y-93164355D01*
X59349716Y-93164356D01*
X59440246Y-93254886D01*
X59472284Y-93276293D01*
X59517089Y-93329906D01*
X59525796Y-93399231D01*
X59495641Y-93462258D01*
X59491074Y-93467076D01*
X59057085Y-93901064D01*
X59057084Y-93901065D01*
X59057085Y-93901066D01*
X59120843Y-93947388D01*
X59219016Y-93997410D01*
X59317188Y-94047432D01*
X59317191Y-94047433D01*
X59384853Y-94069417D01*
X59526764Y-94115526D01*
X59744419Y-94150000D01*
X59964780Y-94150000D01*
X59964781Y-94150000D01*
X60182435Y-94115526D01*
X60392010Y-94047432D01*
X60588360Y-93947386D01*
X60619518Y-93924747D01*
X60646256Y-93915207D01*
X60652114Y-93901065D01*
X60218124Y-93467076D01*
X60184639Y-93405753D01*
X60189623Y-93336062D01*
X60231494Y-93280128D01*
X60236870Y-93276323D01*
X60268951Y-93254888D01*
X60359488Y-93164351D01*
X60380895Y-93132312D01*
X60434503Y-93087510D01*
X60503827Y-93078801D01*
X60566856Y-93108955D01*
X60571676Y-93113524D01*
X61005665Y-93547514D01*
X61005665Y-93547513D01*
X61005666Y-93547514D01*
X61005666Y-93547513D01*
X61019134Y-93541934D01*
X61025351Y-93520764D01*
X61029349Y-93514916D01*
X61051986Y-93483760D01*
X61152032Y-93287410D01*
X61220126Y-93077835D01*
X61254600Y-92860181D01*
X61254600Y-92639818D01*
X61220126Y-92422162D01*
X61202614Y-92368263D01*
X61152032Y-92212589D01*
X61051988Y-92016243D01*
X61005666Y-91952485D01*
X61005664Y-91952485D01*
X60571676Y-92386474D01*
X60510353Y-92419959D01*
X60440661Y-92414975D01*
X60384728Y-92373103D01*
X60380893Y-92367684D01*
X60359486Y-92335646D01*
X60268956Y-92245116D01*
X60268952Y-92245113D01*
X60268951Y-92245112D01*
X60236910Y-92223703D01*
X60192107Y-92170091D01*
X60183400Y-92100766D01*
X60213555Y-92037739D01*
X60218099Y-92032944D01*
X60652113Y-91598932D01*
X60588356Y-91552611D01*
X60588344Y-91552604D01*
X60392021Y-91452571D01*
X60392005Y-91452564D01*
X60182437Y-91384473D01*
X60182438Y-91384473D01*
X60019194Y-91358618D01*
X59964781Y-91350000D01*
X59964780Y-91350000D01*
X59744414Y-91350000D01*
X59526762Y-91384473D01*
X59317191Y-91452565D01*
X59317188Y-91452566D01*
X59120834Y-91552615D01*
X59120830Y-91552617D01*
X59057085Y-91598931D01*
X59057085Y-91598932D01*
X59491075Y-92032922D01*
X59524560Y-92094245D01*
X59519576Y-92163937D01*
X59477704Y-92219870D01*
X59472288Y-92223703D01*
X59440248Y-92245112D01*
X59440243Y-92245116D01*
X59349716Y-92335643D01*
X59349712Y-92335648D01*
X59328303Y-92367688D01*
X59274690Y-92412491D01*
X59205364Y-92421197D01*
X59142338Y-92391040D01*
X59137522Y-92386475D01*
X58703532Y-91952485D01*
X58703531Y-91952485D01*
X58657217Y-92016230D01*
X58657215Y-92016234D01*
X58557166Y-92212588D01*
X58557165Y-92212591D01*
X58489073Y-92422162D01*
X58454600Y-92639818D01*
X56267496Y-92639818D01*
X56281529Y-92596628D01*
X56287335Y-92578760D01*
X56320125Y-92477838D01*
X56320124Y-92477838D01*
X56320126Y-92477835D01*
X56354600Y-92260181D01*
X56354600Y-92039818D01*
X56326925Y-91865091D01*
X56320126Y-91822163D01*
X56291746Y-91734818D01*
X56275400Y-91684509D01*
X56275399Y-91684507D01*
X56252033Y-91612591D01*
X56151988Y-91416243D01*
X56105666Y-91352485D01*
X56105664Y-91352485D01*
X55671676Y-91786474D01*
X55610353Y-91819959D01*
X55540661Y-91814975D01*
X55484728Y-91773103D01*
X55480893Y-91767684D01*
X55459486Y-91735646D01*
X55368956Y-91645116D01*
X55368952Y-91645113D01*
X55368951Y-91645112D01*
X55336910Y-91623703D01*
X55292107Y-91570091D01*
X55283400Y-91500766D01*
X55313555Y-91437739D01*
X55318099Y-91432944D01*
X55752113Y-90998932D01*
X55688356Y-90952611D01*
X55688344Y-90952604D01*
X55492021Y-90852571D01*
X55492005Y-90852564D01*
X55282437Y-90784473D01*
X55282438Y-90784473D01*
X55119194Y-90758618D01*
X55064781Y-90750000D01*
X55064780Y-90750000D01*
X54844414Y-90750000D01*
X54626762Y-90784473D01*
X54417191Y-90852565D01*
X54417188Y-90852566D01*
X54220834Y-90952615D01*
X54220830Y-90952617D01*
X54157084Y-90998931D01*
X54591075Y-91432922D01*
X54624560Y-91494245D01*
X54619576Y-91563937D01*
X54577704Y-91619870D01*
X54572288Y-91623703D01*
X54540248Y-91645112D01*
X54540243Y-91645116D01*
X54449716Y-91735643D01*
X54449712Y-91735648D01*
X54428303Y-91767688D01*
X54374690Y-91812491D01*
X54305364Y-91821197D01*
X54242338Y-91791040D01*
X54237522Y-91786475D01*
X53803532Y-91352485D01*
X53803531Y-91352485D01*
X53757217Y-91416230D01*
X53757215Y-91416234D01*
X53657166Y-91612588D01*
X53657165Y-91612591D01*
X53589073Y-91822162D01*
X53570392Y-91940112D01*
X53554600Y-92039818D01*
X51351300Y-92039818D01*
X51351300Y-40642329D01*
X51356323Y-40607393D01*
X51360727Y-40592395D01*
X51398472Y-40533644D01*
X51399841Y-40532457D01*
X51454720Y-40504977D01*
X51462279Y-40503333D01*
X51488632Y-40500500D01*
X227957670Y-40500500D01*
X227992606Y-40505523D01*
G37*
%TD.AperFunction*%
%TD*%
M02*
