M48
; DRILL file KiCad 10.0.0-77-g195be9ed85 date 2026-05-08T16:48:46
; FORMAT={-:-/ absolute / inch / decimal}
; #@! TF.CreationDate,2026-05-08T16:48:46+02:00
; #@! TF.GenerationSoftware,Kicad,Pcbnew,10.0.0-77-g195be9ed85
; #@! TF.FileFunction,Plated,1,4,PTH
FMAT,2
INCH
; #@! TA.AperFunction,Plated,PTH,ViaDrill
T1C0.0118
; #@! TA.AperFunction,Plated,PTH,ComponentDrill
T2C0.0512
%
G90
G05
T1
X2.475Y-3.728
X2.611Y-3.792
X2.699Y-3.823
X2.78Y-3.845
X2.842Y-3.816
X2.913Y-3.855
X2.9853Y-3.829
X2.9853Y-4.177
X3.0287Y-3.829
X3.0287Y-4.177
X3.1323Y-3.917
X3.1323Y-4.18
X3.1757Y-3.917
X3.1757Y-4.18
X3.3173Y-3.925
X3.3173Y-4.191
X3.3607Y-3.925
X3.3607Y-4.191
X3.508Y-4.085
X3.547Y-4.124
X8.486Y-4.062
X8.501Y-4.011
X8.563Y-4.053
X8.654Y-3.758
X8.654Y-3.817
X8.654Y-3.876
X8.654Y-3.935
X8.683Y-3.9939
X8.72Y-4.108
X8.73Y-4.007
X8.842Y-4.074
T2
X2.1636Y-3.628
X2.1636Y-4.2461
X2.3565Y-3.6516
X2.3565Y-4.2224
X8.6475Y-3.6396
X8.6475Y-4.2104
X8.8404Y-3.6159
X8.8404Y-4.2341
M30
