%TF.GenerationSoftware,KiCad,Pcbnew,10.0.0-77-g195be9ed85*%
%TF.CreationDate,2026-05-08T16:48:46+02:00*%
%TF.ProjectId,diff-line-demo,64696666-2d6c-4696-9e65-2d64656d6f2e,rev?*%
%TF.SameCoordinates,Original*%
%TF.FileFunction,Soldermask,Top*%
%TF.FilePolarity,Negative*%
%FSLAX46Y46*%
G04 Gerber Fmt 4.6, Leading zero omitted, Abs format (unit mm)*
G04 Created by KiCad (PCBNEW 10.0.0-77-g195be9ed85) date 2026-05-08 16:48:46*
%MOMM*%
%LPD*%
G01*
G04 APERTURE LIST*
%ADD10R,1.900000X0.300000*%
%ADD11C,1.800000*%
G04 APERTURE END LIST*
D10*
%TO.C,J1*%
X218647000Y-94945000D03*
X218647000Y-95445000D03*
X218647000Y-95945000D03*
X218647000Y-96445000D03*
X218647000Y-96945000D03*
X218647000Y-97445000D03*
X218647000Y-97945000D03*
X218647000Y-98445000D03*
X218647000Y-98945000D03*
X218647000Y-99445000D03*
X218647000Y-99945000D03*
X218647000Y-100445000D03*
X218647000Y-100945000D03*
X218647000Y-101445000D03*
X218647000Y-101945000D03*
X218647000Y-102445000D03*
X218647000Y-102945000D03*
X218647000Y-103445000D03*
X218647000Y-103945000D03*
D11*
X224547000Y-107545000D03*
X219647000Y-106945000D03*
X219647000Y-92445000D03*
X224547000Y-91845000D03*
%TD*%
D10*
%TO.C,J2*%
X60854600Y-104750000D03*
X60854600Y-104250000D03*
X60854600Y-103750000D03*
X60854600Y-103250000D03*
X60854600Y-102750000D03*
X60854600Y-102250000D03*
X60854600Y-101750000D03*
X60854600Y-101250000D03*
X60854600Y-100750000D03*
X60854600Y-100250000D03*
X60854600Y-99750000D03*
X60854600Y-99250000D03*
X60854600Y-98750000D03*
X60854600Y-98250000D03*
X60854600Y-97750000D03*
X60854600Y-97250000D03*
X60854600Y-96750000D03*
X60854600Y-96250000D03*
X60854600Y-95750000D03*
D11*
X54954600Y-92150000D03*
X59854600Y-92750000D03*
X59854600Y-107250000D03*
X54954600Y-107850000D03*
%TD*%
M02*
